<svg id="svg" version="1.1" xmlns="http://www.w3.org/2000/svg" xmlns:xlink="http://www.w3.org/1999/xlink" width="400" height="487.27272727272725" viewBox="0, 0, 400,487.27272727272725"><g id="svgg"><path id="path0" d="M14.119 7.600 C 7.923 7.746,5.499 7.940,5.119 8.319 C 3.992 9.446,4.800 29.881,6.087 32.800 C 7.387 35.750,7.591 36.729,8.190 42.902 C 8.685 48.007,8.893 48.979,9.732 50.102 C 10.857 51.608,11.460 53.392,11.796 56.200 C 12.286 60.301,12.450 60.806,13.652 61.929 C 14.726 62.933,14.942 63.531,15.495 67.033 C 15.976 70.074,16.341 71.239,17.061 72.022 C 17.577 72.584,18.383 74.204,18.851 75.622 C 19.320 77.040,20.212 78.741,20.834 79.401 C 21.947 80.582,23.200 83.437,23.200 84.788 C 23.200 85.167,23.579 85.819,24.043 86.238 C 25.141 87.231,26.261 89.454,26.615 91.341 C 26.786 92.250,27.260 93.083,27.812 93.445 C 28.316 93.775,29.209 95.069,29.797 96.322 C 30.385 97.575,31.382 99.140,32.013 99.800 C 32.643 100.460,33.436 101.663,33.774 102.473 C 34.112 103.284,34.730 104.186,35.147 104.478 C 35.564 104.770,36.440 106.177,37.093 107.605 C 37.801 109.151,38.778 110.560,39.511 111.090 C 40.188 111.580,40.958 112.580,41.223 113.313 C 41.488 114.046,42.220 114.941,42.849 115.302 C 43.478 115.663,44.281 116.563,44.633 117.300 C 44.985 118.038,45.661 118.812,46.136 119.021 C 46.611 119.229,47.366 120.109,47.814 120.975 C 48.262 121.842,49.162 122.842,49.814 123.199 C 50.466 123.556,51.179 124.245,51.397 124.730 C 51.616 125.214,53.371 126.984,55.297 128.663 C 57.224 130.341,58.800 131.956,58.800 132.252 C 58.800 132.548,59.515 133.242,60.390 133.794 C 61.264 134.346,62.275 135.248,62.636 135.799 C 62.997 136.349,63.533 136.800,63.827 136.800 C 64.977 136.800,66.378 137.761,66.739 138.798 C 66.999 139.543,67.930 140.340,69.698 141.328 C 71.117 142.122,72.518 143.061,72.812 143.415 C 73.106 143.769,74.079 144.426,74.973 144.875 C 75.868 145.324,76.960 146.095,77.400 146.589 C 77.840 147.082,79.039 147.790,80.065 148.162 C 81.091 148.535,82.601 149.472,83.420 150.245 C 84.240 151.018,85.595 151.925,86.432 152.259 C 87.268 152.594,88.237 153.303,88.585 153.834 C 88.934 154.365,89.542 154.800,89.938 154.800 C 91.341 154.800,94.321 156.058,95.579 157.181 C 96.493 157.997,97.611 158.460,99.527 158.814 C 102.422 159.349,104.116 160.052,105.453 161.273 C 105.923 161.701,107.658 162.390,109.310 162.803 C 112.202 163.525,113.633 164.082,116.196 165.482 C 116.854 165.842,118.294 166.208,119.396 166.297 C 122.361 166.536,123.619 167.147,124.249 168.656 C 124.714 169.768,124.800 194.800,124.800 328.587 L 124.800 487.200 147.386 487.200 L 169.972 487.200 170.086 417.089 L 170.200 346.978 171.221 344.989 C 172.929 341.664,171.824 341.814,195.400 341.695 C 219.100 341.576,219.419 341.605,221.232 344.108 L 222.400 345.720 222.400 416.460 L 222.400 487.200 245.205 487.200 L 268.009 487.200 267.995 345.687 C 267.980 197.074,267.915 202.500,269.725 200.500 C 270.875 199.229,271.349 199.359,273.021 201.400 C 273.833 202.390,274.712 203.200,274.976 203.200 C 275.240 203.200,276.201 203.965,277.113 204.900 C 278.024 205.835,279.221 207.050,279.772 207.600 C 280.324 208.150,281.413 209.320,282.192 210.200 C 284.849 213.200,292.993 221.444,295.569 223.741 C 296.981 225.001,299.010 227.060,300.076 228.316 C 301.143 229.572,302.147 230.728,302.308 230.884 C 302.468 231.040,304.580 233.056,307.000 235.364 C 309.420 237.672,311.760 239.937,312.200 240.398 C 312.640 240.858,314.255 242.442,315.789 243.917 C 317.322 245.393,319.032 247.093,319.589 247.696 C 320.145 248.299,321.768 249.919,323.196 251.296 C 326.527 254.510,327.650 255.636,330.682 258.806 C 332.048 260.232,333.578 261.772,334.082 262.227 C 334.587 262.682,336.224 264.302,337.719 265.827 C 341.965 270.157,342.038 270.230,345.000 273.178 C 346.540 274.710,348.137 276.311,348.548 276.734 C 349.427 277.639,351.544 279.778,352.400 280.624 C 352.730 280.951,353.406 281.619,353.902 282.109 C 354.887 283.082,355.765 283.962,357.585 285.800 C 360.743 288.990,362.381 290.400,362.929 290.400 C 363.259 290.400,363.995 290.954,364.564 291.631 C 365.196 292.382,365.600 292.629,365.600 292.266 C 365.600 291.546,367.827 289.600,368.651 289.600 C 368.976 289.600,369.432 289.054,369.665 288.386 C 369.939 287.599,370.634 286.893,371.636 286.382 C 372.487 285.947,373.459 285.058,373.797 284.406 C 374.134 283.754,374.846 282.991,375.379 282.710 C 375.912 282.430,376.770 281.573,377.286 280.806 C 377.802 280.039,378.640 279.204,379.149 278.950 C 379.658 278.697,380.410 277.938,380.820 277.264 C 381.229 276.590,382.104 275.760,382.764 275.419 C 383.424 275.078,384.266 274.161,384.636 273.382 C 385.005 272.602,385.811 271.705,386.426 271.387 C 387.040 271.069,387.663 270.430,387.810 269.968 C 387.957 269.505,388.800 268.803,389.683 268.407 C 390.865 267.878,391.481 267.259,392.018 266.058 C 392.514 264.952,393.078 264.346,393.774 264.171 C 394.979 263.868,395.409 259.600,394.236 259.600 C 393.539 259.600,391.600 257.355,391.600 256.549 C 391.600 256.225,390.957 255.691,390.171 255.362 C 389.386 255.034,388.455 254.264,388.103 253.651 C 387.751 253.038,386.947 252.240,386.315 251.877 C 385.684 251.515,384.912 250.609,384.601 249.865 C 384.242 249.006,383.574 248.321,382.771 247.988 C 382.075 247.700,381.185 246.936,380.793 246.292 C 380.401 245.647,379.518 244.778,378.832 244.361 C 378.145 243.943,377.398 243.194,377.171 242.696 C 376.944 242.198,376.232 241.488,375.588 241.119 C 374.944 240.749,374.064 239.867,373.633 239.157 C 373.201 238.448,372.291 237.634,371.611 237.348 C 370.880 237.041,370.159 236.320,369.852 235.589 C 369.566 234.909,368.752 233.999,368.043 233.567 C 367.333 233.136,366.471 232.292,366.125 231.692 C 365.780 231.091,364.946 230.330,364.271 230.000 C 363.490 229.618,362.886 228.913,362.607 228.059 C 362.305 227.136,361.766 226.549,360.874 226.174 C 360.163 225.875,359.271 225.092,358.894 224.434 C 358.516 223.777,357.789 223.133,357.278 223.005 C 356.684 222.856,356.080 222.173,355.607 221.117 C 355.055 219.883,354.527 219.352,353.533 219.031 C 352.669 218.752,351.989 218.161,351.600 217.351 C 351.270 216.665,350.500 215.815,349.888 215.463 C 349.277 215.111,348.481 214.309,348.120 213.680 C 347.759 213.051,346.948 212.240,346.317 211.878 C 345.686 211.516,344.931 210.651,344.638 209.956 C 344.320 209.198,343.609 208.483,342.861 208.169 C 342.176 207.881,341.270 207.077,340.848 206.383 C 340.426 205.688,339.518 204.778,338.832 204.361 C 338.145 203.943,337.398 203.194,337.171 202.696 C 336.944 202.198,336.220 201.482,335.563 201.104 C 334.905 200.727,334.106 199.793,333.786 199.029 C 333.408 198.123,332.706 197.403,331.766 196.957 C 330.973 196.581,330.127 195.838,329.885 195.307 C 329.642 194.775,328.925 194.072,328.291 193.743 C 327.656 193.415,326.879 192.531,326.565 191.777 C 326.180 190.856,325.533 190.216,324.587 189.820 C 323.814 189.497,322.885 188.716,322.523 188.085 C 322.160 187.453,321.349 186.641,320.720 186.280 C 320.091 185.919,319.281 185.109,318.920 184.480 C 318.559 183.851,317.759 183.047,317.143 182.693 C 316.527 182.340,315.793 181.497,315.511 180.820 C 315.218 180.113,314.414 179.294,313.622 178.895 C 312.864 178.513,311.964 177.696,311.622 177.080 C 311.280 176.465,310.550 175.739,310.001 175.469 C 309.451 175.198,308.641 174.422,308.201 173.743 C 307.760 173.064,306.895 172.316,306.278 172.081 C 305.518 171.791,304.950 171.129,304.518 170.027 C 304.166 169.132,303.650 168.400,303.370 168.400 C 302.655 168.400,300.400 166.436,300.400 165.813 C 300.400 165.529,299.873 165.079,299.228 164.812 C 298.558 164.534,297.779 163.742,297.408 162.961 C 297.014 162.129,296.155 161.287,295.209 160.805 C 294.356 160.370,293.552 159.678,293.421 159.267 C 293.291 158.857,292.481 157.956,291.620 157.265 C 290.760 156.573,289.946 155.659,289.810 155.233 C 289.675 154.807,288.940 154.089,288.176 153.639 C 287.412 153.188,286.612 152.357,286.396 151.791 C 286.165 151.182,285.420 150.517,284.574 150.163 C 283.787 149.834,282.841 149.033,282.471 148.382 C 282.102 147.731,281.477 147.094,281.081 146.966 C 280.686 146.839,279.335 145.879,278.079 144.834 C 276.823 143.788,274.990 142.425,274.006 141.804 C 273.023 141.183,271.976 140.433,271.680 140.137 C 271.385 139.842,270.974 139.600,270.767 139.600 C 269.970 139.600,266.538 137.801,265.286 136.727 C 264.563 136.107,263.511 135.600,262.947 135.600 C 262.383 135.600,260.454 134.897,258.661 134.039 C 256.836 133.165,253.906 132.176,252.007 131.793 C 247.987 130.983,247.148 130.691,246.245 129.787 C 244.788 128.331,243.223 128.273,197.600 128.004 C 149.792 127.721,150.956 127.769,144.814 125.837 C 143.816 125.523,141.200 125.063,139.000 124.816 C 133.094 124.151,130.918 123.644,129.696 122.649 C 129.085 122.152,127.212 121.438,125.466 121.036 C 123.247 120.526,121.942 119.973,120.996 119.143 C 120.042 118.306,118.834 117.797,116.779 117.369 C 113.708 116.728,111.600 115.836,111.600 115.176 C 111.600 114.953,110.835 114.434,109.900 114.022 C 108.965 113.609,107.312 112.525,106.227 111.611 C 105.141 110.698,103.734 109.847,103.099 109.720 C 102.458 109.592,101.469 108.892,100.873 108.145 C 100.283 107.405,99.478 106.800,99.085 106.800 C 98.691 106.800,97.611 106.071,96.685 105.179 C 95.758 104.288,94.209 103.163,93.242 102.679 C 92.233 102.175,91.089 101.174,90.557 100.331 C 90.047 99.524,89.120 98.561,88.496 98.193 C 87.873 97.825,86.943 96.911,86.430 96.162 C 85.917 95.413,85.290 94.800,85.037 94.800 C 83.722 94.800,80.190 90.804,75.844 84.400 C 74.874 82.970,73.621 81.372,73.061 80.850 C 72.500 80.327,71.933 79.407,71.801 78.806 C 71.669 78.205,71.013 77.192,70.344 76.556 C 69.674 75.920,68.802 74.770,68.405 74.000 C 68.008 73.230,67.129 72.022,66.453 71.316 C 65.777 70.609,65.112 69.529,64.976 68.916 C 64.400 66.323,63.849 65.056,62.750 63.804 C 62.109 63.074,61.341 61.668,61.044 60.679 C 60.746 59.690,59.936 58.176,59.244 57.315 C 58.235 56.059,57.863 55.042,57.364 52.175 C 57.022 50.209,56.530 48.218,56.271 47.750 C 56.012 47.283,55.461 46.301,55.047 45.569 C 54.634 44.836,53.971 42.311,53.576 39.957 C 53.180 37.604,52.498 34.977,52.061 34.119 C 50.548 31.154,49.951 26.747,49.824 17.600 C 49.677 7.048,49.878 7.615,46.257 7.545 C 38.392 7.394,21.658 7.422,14.119 7.600 M189.800 7.662 C 183.738 8.088,180.508 8.672,179.215 9.577 C 177.877 10.514,175.760 11.454,173.878 11.948 C 173.041 12.168,171.989 12.814,171.540 13.385 C 171.092 13.955,170.044 14.770,169.212 15.194 C 168.380 15.618,167.334 16.585,166.888 17.341 C 166.441 18.098,165.088 19.463,163.880 20.375 C 162.672 21.287,161.459 22.575,161.185 23.236 C 160.911 23.898,159.924 25.064,158.992 25.828 C 157.930 26.698,157.206 27.668,157.055 28.423 C 156.904 29.180,156.384 29.876,155.658 30.292 C 154.667 30.861,154.409 31.393,153.842 34.031 C 153.403 36.073,152.769 37.674,151.955 38.798 C 149.062 42.792,149.219 62.609,152.188 68.205 C 152.935 69.612,153.669 71.627,153.819 72.682 C 153.977 73.788,154.472 75.023,154.987 75.600 C 155.478 76.150,156.449 77.615,157.144 78.855 C 157.839 80.096,159.021 81.579,159.771 82.151 C 160.559 82.752,161.246 83.699,161.399 84.395 C 161.559 85.123,161.917 85.600,162.304 85.600 C 162.656 85.600,163.677 86.385,164.572 87.345 C 165.467 88.304,167.117 89.553,168.238 90.120 C 169.358 90.687,170.585 91.623,170.964 92.200 C 171.342 92.778,172.429 93.584,173.379 93.991 C 174.329 94.398,175.363 95.098,175.677 95.546 C 176.083 96.126,177.275 96.584,179.824 97.141 C 181.791 97.570,184.480 98.308,185.800 98.780 C 189.880 100.240,190.826 100.381,196.630 100.390 C 202.265 100.400,205.490 99.771,208.747 98.029 C 209.212 97.779,211.118 97.293,212.983 96.947 C 215.637 96.454,216.425 96.153,216.614 95.555 C 216.868 94.757,218.294 93.881,220.004 93.473 C 220.556 93.341,221.726 92.569,222.604 91.758 C 223.482 90.947,224.934 89.955,225.830 89.554 C 226.727 89.153,227.661 88.384,227.906 87.847 C 228.156 87.298,228.974 86.644,229.770 86.356 C 230.816 85.978,231.304 85.496,231.624 84.526 C 231.863 83.802,232.667 82.636,233.410 81.935 C 234.154 81.234,235.149 79.747,235.623 78.630 C 236.097 77.514,236.978 76.141,237.580 75.579 C 238.396 74.819,238.749 74.011,238.961 72.412 C 239.303 69.834,240.131 67.737,241.300 66.493 C 243.541 64.108,243.202 42.047,240.875 38.838 C 239.566 37.033,239.063 35.588,238.621 32.357 C 238.424 30.924,238.151 30.415,237.392 30.069 C 236.855 29.824,236.045 28.835,235.591 27.871 C 235.138 26.907,234.355 25.897,233.851 25.627 C 233.348 25.358,232.610 24.566,232.212 23.869 C 231.131 21.972,229.186 20.026,227.510 19.162 C 226.690 18.739,225.624 17.859,225.140 17.205 C 224.657 16.551,223.666 15.820,222.937 15.579 C 222.209 15.339,221.205 14.623,220.706 13.988 C 220.148 13.277,218.652 12.361,216.811 11.603 C 215.167 10.926,213.457 10.033,213.011 9.618 C 212.105 8.775,209.419 8.226,203.200 7.611 C 198.588 7.155,196.924 7.161,189.800 7.662 " stroke="none" fill="#52aeb2" fill-rule="evenodd"></path><path id="path1" d="M3.345 4.061 C 2.275 4.467,1.085 4.799,0.700 4.800 C 0.057 4.800,0.000 5.448,0.000 12.800 L 0.000 20.800 0.948 20.800 C 2.078 20.800,2.197 21.430,2.801 30.631 C 3.201 36.711,3.747 39.579,4.947 41.899 C 5.317 42.613,5.889 45.116,6.218 47.462 C 6.970 52.823,7.099 53.353,8.240 55.810 C 8.753 56.916,9.449 59.130,9.785 60.730 C 10.122 62.330,11.007 64.788,11.753 66.193 C 12.498 67.598,13.409 70.098,13.776 71.750 C 14.144 73.402,14.890 75.410,15.434 76.213 C 15.979 77.015,16.938 78.781,17.566 80.136 C 18.193 81.491,19.178 83.220,19.753 83.978 C 20.329 84.735,20.801 85.545,20.802 85.778 C 20.809 87.062,21.793 89.391,22.824 90.566 C 23.473 91.305,24.271 92.668,24.598 93.595 C 24.925 94.523,26.005 96.361,26.997 97.680 C 27.988 99.000,28.800 100.325,28.800 100.626 C 28.800 100.926,29.316 101.763,29.946 102.486 C 30.577 103.209,31.458 104.520,31.905 105.400 C 32.352 106.280,33.210 107.530,33.812 108.178 C 34.413 108.825,35.166 109.995,35.485 110.778 C 35.804 111.560,36.677 112.830,37.426 113.600 C 41.701 117.994,42.800 119.214,42.800 119.563 C 42.800 119.777,43.520 120.783,44.400 121.800 C 45.280 122.817,46.000 123.796,46.000 123.976 C 46.000 124.156,46.922 125.270,48.049 126.452 C 49.177 127.633,50.392 128.965,50.749 129.411 C 51.107 129.857,52.030 130.662,52.800 131.201 C 53.570 131.740,55.460 133.424,57.000 134.944 C 60.016 137.920,61.786 139.196,62.906 139.199 C 63.294 139.199,63.961 139.785,64.387 140.500 C 65.173 141.817,66.863 143.231,70.736 145.813 C 71.911 146.596,73.261 147.610,73.736 148.067 C 74.211 148.523,75.469 149.306,76.531 149.808 C 77.593 150.309,78.853 151.079,79.331 151.520 C 80.509 152.607,87.548 156.612,88.834 156.928 C 89.402 157.068,90.553 157.727,91.391 158.392 C 92.785 159.500,95.802 160.671,99.100 161.383 C 99.815 161.537,100.400 161.801,100.400 161.968 C 100.400 162.395,103.879 164.208,105.800 164.782 C 106.680 165.045,108.231 165.695,109.246 166.226 C 110.261 166.757,112.900 167.618,115.110 168.141 C 119.196 169.106,121.648 170.261,122.260 171.508 C 122.447 171.889,122.647 243.075,122.705 329.700 C 122.775 433.452,122.946 487.200,123.207 487.200 C 123.980 487.200,123.526 170.357,122.752 169.176 C 122.211 168.351,121.481 168.070,118.352 167.482 C 116.288 167.094,113.520 166.263,112.200 165.636 C 110.880 165.008,108.720 164.189,107.400 163.816 C 106.080 163.442,103.920 162.544,102.600 161.820 C 101.280 161.096,99.210 160.283,98.000 160.013 C 96.790 159.744,94.808 158.926,93.596 158.197 C 92.384 157.467,90.458 156.515,89.314 156.080 C 88.171 155.646,86.733 154.905,86.118 154.433 C 85.503 153.962,84.190 152.949,83.200 152.183 C 82.210 151.416,80.320 150.264,79.000 149.621 C 77.680 148.979,75.687 147.767,74.572 146.927 C 73.456 146.087,71.489 144.680,70.199 143.800 C 68.910 142.920,67.032 141.368,66.027 140.351 C 65.022 139.334,63.724 138.254,63.142 137.951 C 61.442 137.066,52.449 128.721,49.400 125.200 C 47.860 123.421,45.970 121.258,45.200 120.394 C 44.430 119.530,42.990 117.811,42.000 116.575 C 41.010 115.339,39.538 113.643,38.729 112.807 C 37.919 111.971,36.813 110.412,36.269 109.343 C 35.725 108.274,34.723 106.700,34.040 105.845 C 33.358 104.990,32.800 104.152,32.800 103.983 C 32.800 103.814,32.157 102.906,31.371 101.966 C 30.586 101.025,29.571 99.527,29.116 98.636 C 28.662 97.745,27.799 96.383,27.199 95.608 C 26.600 94.834,25.801 93.390,25.424 92.400 C 25.048 91.410,24.218 89.782,23.581 88.783 C 22.944 87.784,22.155 86.207,21.828 85.279 C 21.500 84.351,20.716 82.828,20.085 81.896 C 19.454 80.963,18.622 79.390,18.236 78.400 C 17.850 77.410,17.024 75.700,16.400 74.600 C 15.776 73.500,14.977 71.430,14.625 70.000 C 14.273 68.570,13.355 66.140,12.586 64.600 C 11.739 62.906,10.966 60.536,10.628 58.600 C 10.321 56.840,9.604 54.473,9.034 53.339 C 8.314 51.909,7.754 49.665,7.200 46.000 C 6.761 43.096,6.039 39.898,5.594 38.893 C 4.464 36.338,4.098 33.395,3.349 20.800 C 2.557 7.506,2.553 8.440,3.402 6.653 C 4.340 4.675,3.103 4.765,27.600 4.889 L 49.400 5.000 50.128 6.489 C 50.688 7.636,50.943 9.609,51.239 15.089 C 51.721 23.991,52.108 27.315,52.929 29.600 C 53.285 30.590,53.951 33.650,54.409 36.400 C 54.954 39.665,55.637 42.233,56.377 43.800 C 57.001 45.120,57.909 47.545,58.395 49.190 C 58.880 50.834,59.685 52.994,60.184 53.990 C 60.682 54.985,61.410 56.790,61.802 58.000 C 62.194 59.210,63.025 60.920,63.648 61.800 C 64.272 62.680,65.149 64.471,65.597 65.781 C 66.046 67.090,66.749 68.530,67.161 68.981 C 67.573 69.431,68.275 70.520,68.722 71.400 C 69.169 72.280,70.224 73.931,71.067 75.069 C 71.910 76.207,72.913 77.647,73.295 78.269 C 73.677 78.891,74.631 80.210,75.415 81.200 C 76.199 82.190,77.326 83.618,77.920 84.373 C 81.849 89.369,93.655 101.215,95.800 102.314 C 96.680 102.765,97.624 103.504,97.898 103.957 C 98.171 104.410,99.083 105.132,99.924 105.561 C 100.765 105.990,101.682 106.617,101.962 106.954 C 102.241 107.290,103.792 108.292,105.409 109.179 C 107.025 110.066,108.473 110.994,108.626 111.241 C 108.778 111.488,109.661 112.026,110.586 112.435 C 111.512 112.845,113.300 113.800,114.560 114.559 C 115.819 115.317,117.517 116.051,118.333 116.189 C 119.148 116.326,120.532 116.877,121.408 117.411 C 124.011 119.001,125.454 119.580,128.301 120.180 C 129.785 120.493,132.003 121.210,133.229 121.772 C 135.956 123.022,137.804 123.384,145.608 124.201 C 148.957 124.551,152.980 125.091,154.549 125.402 C 156.837 125.854,164.905 126.002,195.400 126.149 C 239.822 126.364,244.842 126.636,249.751 129.090 C 250.823 129.626,253.572 130.488,255.860 131.004 C 258.732 131.653,260.382 132.251,261.197 132.936 C 261.845 133.481,263.326 134.236,264.488 134.614 C 265.649 134.992,267.140 135.702,267.800 136.194 C 268.460 136.685,269.990 137.587,271.200 138.200 C 273.616 139.422,277.972 142.359,280.839 144.699 C 282.969 146.436,283.933 147.363,290.076 153.573 C 292.564 156.088,295.034 158.518,295.565 158.973 C 296.096 159.428,296.996 160.312,297.565 160.939 C 298.134 161.565,299.760 163.185,301.178 164.539 C 302.595 165.892,304.344 167.630,305.064 168.400 C 305.783 169.170,306.641 170.070,306.970 170.400 C 312.343 175.795,324.080 187.520,324.475 187.887 C 324.764 188.155,325.540 188.922,326.200 189.590 C 326.860 190.259,328.557 191.930,329.971 193.303 C 332.291 195.557,334.149 197.436,335.660 199.060 C 335.957 199.379,339.080 202.483,342.600 205.956 C 346.120 209.430,350.216 213.516,351.703 215.036 C 356.114 219.545,356.486 219.918,359.190 222.513 C 362.170 225.375,363.464 226.692,364.622 228.042 C 365.322 228.856,368.434 231.963,371.913 235.319 C 372.415 235.804,373.315 236.714,373.913 237.343 C 374.511 237.972,375.419 238.872,375.931 239.343 C 376.443 239.814,377.973 241.341,379.331 242.736 C 380.689 244.131,382.160 245.615,382.600 246.033 C 383.958 247.324,386.006 249.372,386.515 249.949 C 386.782 250.250,388.350 251.793,390.000 253.377 C 391.650 254.961,393.381 256.694,393.846 257.228 C 394.311 257.763,395.166 258.624,395.746 259.142 C 397.566 260.768,397.257 263.024,394.900 265.330 C 393.855 266.353,392.534 267.687,391.965 268.295 C 391.395 268.903,389.775 270.512,388.365 271.872 C 384.883 275.227,383.932 276.180,381.065 279.181 C 379.709 280.600,376.350 283.976,373.600 286.683 C 370.850 289.390,368.464 291.738,368.299 291.902 C 368.133 292.066,367.485 292.775,366.859 293.478 C 364.753 295.841,370.009 300.710,310.499 241.261 C 288.883 219.667,271.008 202.000,270.776 202.000 C 269.317 202.000,268.885 205.183,269.041 214.800 C 269.124 219.970,269.194 283.375,269.196 355.700 C 269.199 441.753,269.336 487.200,269.594 487.200 C 269.852 487.200,270.025 438.427,270.094 346.220 C 270.171 243.943,270.321 205.119,270.642 204.798 C 271.212 204.228,274.865 207.360,279.800 212.648 C 283.193 216.283,302.333 235.331,311.584 244.278 C 317.777 250.267,318.517 250.999,324.084 256.644 C 326.881 259.480,330.031 262.625,331.084 263.634 C 332.138 264.643,335.047 267.613,337.549 270.234 C 340.051 272.855,343.103 275.990,344.332 277.200 C 345.561 278.410,348.733 281.635,351.383 284.366 C 357.042 290.200,361.101 293.548,363.731 294.553 L 365.625 295.276 367.036 294.138 C 367.812 293.512,369.056 292.550,369.801 292.000 C 371.002 291.114,373.587 288.670,378.543 283.736 C 381.076 281.213,382.273 279.862,383.002 278.700 C 383.381 278.095,383.928 277.600,384.216 277.600 C 384.504 277.600,385.158 277.056,385.670 276.391 C 387.399 274.144,390.993 270.604,392.152 270.005 C 392.786 269.677,393.584 268.822,393.926 268.105 C 394.268 267.387,394.766 266.800,395.032 266.800 C 395.298 266.800,396.074 266.278,396.758 265.640 C 399.227 263.333,397.932 256.800,395.006 256.800 C 394.726 256.800,394.268 256.246,393.987 255.569 C 393.707 254.892,393.010 254.052,392.439 253.703 C 391.867 253.354,390.770 252.407,390.000 251.598 C 389.230 250.790,388.279 249.954,387.887 249.741 C 387.495 249.528,386.865 248.735,386.487 247.977 C 386.109 247.220,385.260 246.348,384.600 246.038 C 383.940 245.729,383.325 245.279,383.234 245.039 C 383.010 244.452,377.509 238.800,377.161 238.800 C 376.652 238.800,372.206 234.199,371.614 233.059 C 371.292 232.439,370.572 231.695,370.014 231.405 C 369.456 231.115,368.583 230.311,368.072 229.618 C 367.562 228.925,366.732 228.170,366.228 227.940 C 365.724 227.710,365.061 226.955,364.755 226.262 C 364.450 225.569,363.639 224.642,362.954 224.201 C 362.269 223.760,361.518 222.902,361.286 222.293 C 361.024 221.605,360.322 220.959,359.432 220.588 C 358.644 220.259,358.000 219.825,358.000 219.625 C 358.000 218.893,355.907 216.800,355.175 216.800 C 354.746 216.800,354.160 216.297,353.818 215.635 C 353.487 214.995,352.729 214.088,352.134 213.620 C 351.539 213.152,350.733 212.244,350.344 211.604 C 349.954 210.963,349.090 210.157,348.424 209.813 C 347.758 209.468,346.932 208.643,346.589 207.978 C 346.245 207.314,345.375 206.489,344.655 206.146 C 343.903 205.787,343.161 205.031,342.911 204.370 C 342.672 203.736,341.860 202.854,341.106 202.410 C 340.352 201.965,339.511 201.181,339.237 200.668 C 338.962 200.155,338.216 199.428,337.580 199.052 C 336.943 198.676,336.119 197.728,335.748 196.947 C 335.377 196.165,334.653 195.334,334.139 195.099 C 333.625 194.865,332.845 194.064,332.405 193.319 C 331.965 192.573,331.040 191.726,330.349 191.435 C 329.635 191.135,328.883 190.409,328.608 189.754 C 328.341 189.119,327.600 188.330,326.961 188.000 C 326.323 187.670,324.810 186.343,323.600 185.051 C 321.599 182.914,320.389 181.692,318.595 180.000 C 318.245 179.670,317.432 178.860,316.789 178.200 C 316.146 177.540,315.233 176.617,314.762 176.148 C 314.290 175.679,313.341 174.728,312.652 174.034 C 309.838 171.198,308.555 170.055,307.700 169.625 C 307.205 169.376,306.800 168.922,306.800 168.617 C 306.800 167.853,304.852 165.600,304.191 165.600 C 303.896 165.600,303.530 165.195,303.380 164.700 C 302.969 163.352,302.053 162.475,300.759 162.191 C 300.020 162.029,299.600 161.683,299.600 161.238 C 299.600 160.408,298.156 159.000,296.920 158.626 C 296.437 158.479,295.933 158.019,295.801 157.604 C 295.670 157.189,294.895 156.264,294.081 155.549 C 293.266 154.835,292.417 153.884,292.194 153.437 C 291.971 152.990,291.175 152.211,290.426 151.706 C 289.677 151.201,288.756 150.281,288.379 149.662 C 288.003 149.043,287.125 148.300,286.428 148.012 C 285.732 147.723,284.896 146.972,284.570 146.341 C 284.244 145.711,283.277 144.754,282.422 144.214 C 281.567 143.674,280.757 143.054,280.622 142.836 C 280.013 141.850,275.163 138.555,272.606 137.390 C 271.054 136.683,269.539 135.809,269.240 135.448 C 268.940 135.086,267.436 134.409,265.898 133.941 C 264.287 133.452,262.763 132.703,262.304 132.175 C 261.347 131.074,260.185 130.595,257.000 129.987 C 255.680 129.735,253.340 128.937,251.800 128.214 C 248.960 126.881,246.060 126.230,241.000 125.787 C 239.460 125.652,237.300 125.252,236.200 124.897 C 234.430 124.326,229.836 124.236,196.200 124.120 C 165.743 124.015,157.204 123.871,153.184 123.394 C 150.425 123.068,146.859 122.800,145.260 122.800 C 141.382 122.800,136.936 122.082,135.131 121.163 C 134.324 120.752,131.852 119.891,129.638 119.249 C 127.250 118.557,125.125 117.672,124.412 117.071 C 123.707 116.478,122.256 115.869,120.905 115.599 C 118.334 115.085,111.060 111.544,109.762 110.176 C 109.301 109.690,108.066 108.913,107.018 108.449 C 105.970 107.986,104.471 107.043,103.686 106.353 C 102.901 105.664,101.686 104.861,100.988 104.569 C 100.289 104.277,99.407 103.565,99.027 102.986 C 98.648 102.407,97.767 101.694,97.069 101.401 C 95.478 100.734,80.697 86.255,79.836 84.520 C 79.486 83.816,78.966 83.096,78.680 82.920 C 78.394 82.744,77.684 81.776,77.103 80.768 C 76.522 79.761,75.764 78.702,75.418 78.415 C 75.073 78.129,74.217 76.819,73.517 75.504 C 72.816 74.190,71.995 73.019,71.692 72.903 C 70.634 72.497,67.230 66.788,66.417 64.057 C 65.970 62.555,65.225 60.893,64.762 60.363 C 62.763 58.077,59.882 51.116,58.981 46.400 C 58.666 44.750,57.873 42.320,57.219 41.000 C 56.565 39.680,55.752 37.070,55.412 35.200 C 55.073 33.330,54.452 30.180,54.033 28.200 C 52.858 22.653,52.343 18.703,52.026 12.807 C 51.684 6.442,51.058 4.634,48.882 3.725 C 46.550 2.751,6.007 3.050,3.345 4.061 M189.000 3.852 C 188.560 3.962,186.850 4.481,185.200 5.005 C 183.550 5.528,180.804 6.249,179.098 6.606 C 177.134 7.017,175.579 7.606,174.862 8.209 C 174.238 8.734,172.734 9.535,171.518 9.990 C 170.303 10.445,168.969 11.194,168.554 11.655 C 168.139 12.116,167.080 12.991,166.200 13.600 C 164.326 14.896,159.200 19.872,159.200 20.394 C 159.200 20.592,158.305 21.776,157.211 23.026 C 156.118 24.276,155.103 25.675,154.958 26.134 C 154.812 26.593,154.191 27.471,153.577 28.084 C 152.964 28.697,152.245 29.874,151.980 30.700 C 151.714 31.525,150.891 33.296,150.150 34.636 C 149.056 36.613,148.657 38.022,148.029 42.110 C 147.604 44.881,147.063 47.508,146.828 47.948 C 145.304 50.795,147.816 68.332,150.317 72.308 C 150.972 73.349,151.818 75.161,152.198 76.337 C 152.578 77.512,153.384 79.042,153.989 79.737 C 154.594 80.431,155.387 81.582,155.751 82.293 C 156.115 83.004,156.950 83.983,157.607 84.468 C 158.263 84.953,158.800 85.530,158.800 85.750 C 158.800 86.364,164.371 91.603,166.935 93.400 C 168.191 94.280,170.333 95.793,171.696 96.763 C 173.058 97.732,175.169 98.832,176.387 99.206 C 177.604 99.579,179.230 100.255,180.000 100.706 C 184.449 103.316,208.134 103.469,211.884 100.913 C 212.718 100.344,214.390 99.623,215.600 99.311 C 216.810 98.998,218.479 98.204,219.309 97.545 C 220.140 96.886,221.811 95.893,223.024 95.337 C 224.237 94.782,225.617 93.804,226.090 93.164 C 226.563 92.524,227.178 92.000,227.456 92.000 C 228.113 92.000,231.466 88.950,235.371 84.800 C 235.889 84.250,236.679 83.068,237.127 82.174 C 237.574 81.280,238.481 79.969,239.142 79.262 C 239.803 78.554,240.653 77.036,241.032 75.888 C 241.410 74.739,242.233 72.885,242.860 71.767 C 243.693 70.282,244.166 68.608,244.611 65.567 C 244.946 63.275,245.413 60.860,245.647 60.200 C 246.441 57.967,246.589 50.213,245.874 48.303 C 245.523 47.367,244.977 44.705,244.660 42.389 C 244.092 38.229,243.290 35.611,242.219 34.415 C 241.916 34.077,241.281 32.597,240.808 31.128 C 240.335 29.658,239.676 28.229,239.343 27.953 C 239.010 27.676,238.321 26.629,237.812 25.625 C 237.303 24.621,236.244 23.120,235.458 22.288 C 234.673 21.456,233.733 20.271,233.368 19.653 C 233.003 19.036,232.080 18.194,231.317 17.783 C 230.553 17.372,229.630 16.656,229.264 16.192 C 228.508 15.233,220.882 9.600,220.339 9.600 C 220.143 9.600,219.312 9.159,218.491 8.620 C 217.671 8.081,215.020 7.103,212.600 6.445 C 210.180 5.788,207.480 4.934,206.600 4.548 C 205.019 3.853,191.178 3.306,189.000 3.852 M207.665 6.391 C 216.226 8.594,222.417 11.839,228.200 17.153 C 228.860 17.760,229.896 18.563,230.501 18.938 C 231.107 19.313,232.078 20.381,232.658 21.310 C 233.238 22.240,234.408 23.761,235.257 24.691 C 236.105 25.621,236.800 26.521,236.800 26.691 C 236.800 26.861,237.417 27.692,238.170 28.538 C 239.043 29.520,239.711 30.822,240.015 32.138 C 240.278 33.272,241.010 35.024,241.643 36.031 C 245.285 41.822,245.281 63.246,241.637 70.141 C 240.957 71.428,240.400 72.876,240.400 73.358 C 240.400 73.841,239.781 75.217,239.024 76.418 C 238.267 77.618,237.254 79.320,236.772 80.200 C 235.434 82.645,232.374 86.119,228.800 89.250 C 224.676 92.862,223.309 93.877,221.600 94.593 C 220.610 95.007,219.350 95.741,218.800 96.224 C 217.423 97.434,216.539 97.833,214.097 98.349 C 212.940 98.593,211.320 99.228,210.497 99.760 C 206.557 102.306,188.602 102.326,182.800 99.791 C 181.590 99.262,179.460 98.544,178.067 98.195 C 175.617 97.582,173.258 96.215,168.600 92.709 C 167.500 91.881,166.396 91.203,166.146 91.202 C 164.527 91.196,155.147 79.633,153.166 75.200 C 152.723 74.210,151.742 72.140,150.984 70.600 C 147.410 63.331,147.544 42.756,151.214 35.435 C 152.086 33.694,152.800 31.950,152.800 31.559 C 152.800 31.168,153.520 30.017,154.400 29.000 C 155.280 27.983,156.000 26.975,156.000 26.759 C 156.000 26.542,156.781 25.518,157.736 24.483 C 158.691 23.447,159.894 21.835,160.410 20.900 C 160.925 19.965,161.480 19.200,161.641 19.200 C 161.803 19.200,162.895 18.335,164.068 17.277 C 165.240 16.220,166.830 14.926,167.600 14.403 C 168.370 13.879,169.570 12.964,170.266 12.368 C 170.962 11.772,172.222 11.058,173.066 10.780 C 173.910 10.502,175.306 9.809,176.170 9.238 C 182.472 5.076,197.336 3.732,207.665 6.391 M191.000 344.400 C 174.342 344.608,173.819 344.664,172.513 346.365 C 172.134 346.859,172.023 362.626,172.013 417.100 L 172.000 487.200 173.192 487.200 L 174.385 487.200 174.492 417.411 L 174.600 347.622 175.512 346.711 L 176.424 345.800 196.130 345.800 C 218.676 345.800,217.679 345.654,218.142 349.027 C 218.284 350.063,218.400 381.577,218.400 419.056 L 218.400 487.200 219.600 487.200 L 220.800 487.200 220.800 417.070 L 220.800 346.939 219.900 346.120 C 217.610 344.034,218.078 344.062,191.000 344.400 " stroke="none" fill="#acdde3" fill-rule="evenodd"></path><path id="path2" d="M0.000 1.651 L 0.000 3.302 1.700 2.958 C 2.635 2.769,13.991 2.611,26.935 2.607 L 50.469 2.600 51.435 3.722 C 52.356 4.793,52.400 5.101,52.400 10.447 C 52.400 15.557,52.486 16.232,53.378 18.125 C 54.764 21.066,55.098 22.870,55.739 30.894 C 56.298 37.882,56.325 38.009,57.526 39.377 C 58.372 40.341,58.822 41.353,58.996 42.683 C 59.502 46.562,60.138 48.627,61.207 49.857 C 62.191 50.988,62.645 52.314,63.405 56.267 C 63.539 56.963,63.900 57.629,64.206 57.747 C 64.992 58.048,66.324 60.806,66.835 63.187 C 67.072 64.294,67.399 65.200,67.562 65.200 C 68.112 65.200,69.966 68.413,70.231 69.826 C 70.420 70.830,70.829 71.401,71.671 71.837 C 72.417 72.222,73.135 73.116,73.633 74.277 C 74.065 75.284,75.137 77.012,76.017 78.116 C 76.896 79.221,77.718 80.531,77.843 81.028 C 77.968 81.525,78.590 82.147,79.225 82.410 C 80.085 82.766,80.448 83.247,80.643 84.289 C 80.835 85.313,81.272 85.905,82.268 86.493 C 83.016 86.935,83.897 87.814,84.224 88.447 C 84.551 89.080,85.437 89.856,86.193 90.171 C 87.108 90.554,87.758 91.203,88.140 92.118 C 88.526 93.043,89.123 93.634,89.965 93.928 C 90.654 94.168,91.515 94.883,91.879 95.517 C 92.243 96.152,92.914 96.835,93.370 97.035 C 93.827 97.236,94.571 98.119,95.025 98.997 C 95.707 100.317,96.111 100.637,97.346 100.838 C 99.096 101.122,99.485 101.449,99.666 102.785 C 99.767 103.525,100.114 103.834,101.057 104.026 C 102.654 104.350,105.089 105.846,105.612 106.822 C 105.833 107.235,106.773 107.777,107.700 108.027 C 108.628 108.277,109.972 108.995,110.688 109.624 C 111.404 110.252,112.757 110.954,113.695 111.184 C 116.892 111.968,117.398 112.219,117.901 113.269 C 118.329 114.160,118.811 114.389,121.102 114.784 C 123.864 115.261,125.043 115.807,126.800 117.423 C 127.556 118.118,128.630 118.454,131.200 118.801 C 134.595 119.258,137.569 120.286,138.848 121.444 C 139.909 122.404,154.086 122.769,192.000 122.813 C 231.507 122.858,235.875 123.015,238.490 124.476 C 239.997 125.318,241.087 125.550,244.660 125.787 C 249.269 126.093,253.239 127.144,254.615 128.423 C 255.133 128.904,256.543 129.345,258.487 129.634 C 261.520 130.085,263.200 130.986,263.200 132.161 C 263.200 132.510,264.213 132.854,266.170 133.169 C 268.927 133.614,271.200 134.885,271.200 135.982 C 271.200 136.131,272.463 136.668,274.006 137.174 C 276.028 137.837,277.042 138.416,277.634 139.247 C 278.085 139.881,278.697 140.400,278.994 140.400 C 279.873 140.400,284.808 144.894,285.069 145.931 C 285.210 146.493,285.821 147.104,286.554 147.415 C 288.050 148.050,295.792 155.465,296.146 156.600 C 296.283 157.040,297.071 157.760,297.897 158.201 C 298.942 158.757,299.537 159.426,299.851 160.394 C 300.213 161.515,300.563 161.841,301.640 162.062 C 302.376 162.212,303.056 162.569,303.152 162.855 C 303.247 163.141,304.075 164.100,304.991 164.987 C 305.908 165.874,306.999 167.185,307.415 167.900 C 307.832 168.615,308.400 169.200,308.678 169.200 C 309.350 169.200,313.917 173.580,314.532 174.814 C 314.798 175.347,315.372 175.968,315.808 176.192 C 316.902 176.755,324.565 184.391,325.155 185.506 C 325.419 186.004,326.321 186.845,327.161 187.375 C 328.194 188.028,328.765 188.725,328.927 189.534 C 329.113 190.467,329.440 190.789,330.414 191.003 C 331.239 191.184,332.026 191.803,332.731 192.826 C 333.319 193.678,334.122 194.484,334.515 194.619 C 334.908 194.753,335.680 195.576,336.230 196.447 C 336.780 197.318,337.628 198.195,338.115 198.395 C 339.116 198.807,342.671 202.425,343.738 204.118 C 344.125 204.733,344.862 205.395,345.375 205.591 C 345.889 205.786,346.824 206.674,347.455 207.564 C 348.085 208.455,348.795 209.187,349.034 209.191 C 349.673 209.204,354.400 214.289,354.400 214.964 C 354.400 215.282,355.126 215.862,356.013 216.254 C 357.132 216.747,357.694 217.278,357.847 217.983 C 358.243 219.815,358.366 220.000,359.178 220.000 C 360.018 220.000,364.879 224.500,365.309 225.677 C 365.446 226.049,366.058 226.679,366.671 227.077 C 368.418 228.211,372.161 232.083,372.707 233.321 C 372.994 233.971,373.712 234.620,374.413 234.865 C 375.079 235.097,375.894 235.808,376.224 236.446 C 376.553 237.083,377.493 238.038,378.311 238.568 C 380.116 239.736,382.514 242.286,383.376 243.954 C 383.788 244.750,384.456 245.295,385.280 245.509 C 386.167 245.739,386.813 246.309,387.425 247.402 C 387.907 248.263,388.549 249.048,388.851 249.147 C 389.710 249.428,394.400 254.397,394.400 255.026 C 394.400 255.336,395.105 256.035,395.966 256.579 C 396.828 257.123,397.649 257.755,397.790 257.984 C 397.931 258.213,398.487 258.400,399.024 258.400 L 400.000 258.400 400.000 129.200 L 400.000 0.000 200.000 0.000 L 0.000 0.000 0.000 1.651 M207.989 3.368 C 208.972 3.731,210.167 4.393,210.642 4.840 C 211.233 5.395,212.444 5.777,214.454 6.045 C 218.363 6.566,219.840 7.070,220.712 8.179 C 221.111 8.686,222.149 9.464,223.018 9.909 C 223.888 10.354,225.090 11.269,225.689 11.943 C 226.288 12.617,227.297 13.437,227.932 13.765 C 228.568 14.094,229.299 14.873,229.558 15.498 C 229.852 16.208,230.654 16.926,231.700 17.417 C 232.620 17.847,233.649 18.711,233.986 19.334 C 234.324 19.958,235.009 20.687,235.510 20.954 C 237.302 21.909,241.189 28.425,241.196 30.487 C 241.199 31.188,241.687 32.061,242.574 32.947 C 244.185 34.559,244.639 36.075,245.011 41.098 C 245.253 44.364,245.421 44.968,246.451 46.265 C 248.555 48.912,248.470 59.602,246.327 61.894 C 245.422 62.861,245.257 63.477,245.009 66.800 C 244.705 70.873,244.101 72.809,242.638 74.400 C 242.132 74.950,241.491 76.242,241.215 77.272 C 240.721 79.109,239.552 80.800,238.776 80.800 C 238.345 80.800,237.784 81.996,237.424 83.683 C 237.273 84.392,236.741 84.980,235.883 85.388 C 235.109 85.755,234.387 86.498,234.122 87.201 C 233.875 87.856,233.227 88.562,232.683 88.768 C 232.139 88.975,231.286 89.717,230.788 90.417 C 230.289 91.118,229.281 91.941,228.548 92.248 C 227.701 92.601,227.122 93.173,226.961 93.813 C 226.672 94.966,226.019 95.383,223.905 95.765 C 223.062 95.917,222.235 96.360,222.010 96.781 C 221.418 97.887,219.197 99.127,217.253 99.438 C 216.189 99.608,214.941 100.214,213.950 101.042 C 211.709 102.914,210.940 103.000,196.400 103.000 C 181.861 103.000,180.959 102.899,178.876 101.032 C 177.816 100.081,176.838 99.626,175.405 99.416 C 172.942 99.054,171.406 98.286,170.560 96.995 C 170.192 96.433,169.195 95.792,168.256 95.513 C 167.096 95.167,165.759 94.177,163.795 92.210 C 162.252 90.664,160.491 89.077,159.881 88.682 C 159.242 88.268,158.672 87.461,158.535 86.777 C 158.373 85.963,157.997 85.514,157.340 85.349 C 156.178 85.058,155.200 83.754,155.200 82.498 C 155.200 81.875,154.767 81.318,153.874 80.791 C 152.593 80.035,151.200 77.049,151.200 75.056 C 151.200 74.686,150.785 74.194,150.278 73.963 C 148.786 73.283,148.382 72.193,147.815 67.315 C 147.519 64.774,147.085 62.576,146.851 62.431 C 144.621 61.053,144.263 49.787,146.322 45.783 C 147.327 43.829,147.598 42.717,147.826 39.600 C 148.139 35.319,148.841 33.127,150.180 32.250 C 150.706 31.905,151.285 30.922,151.548 29.926 C 151.800 28.977,152.537 27.480,153.188 26.600 C 153.839 25.720,154.740 24.329,155.190 23.508 C 155.640 22.688,156.550 21.736,157.213 21.393 C 157.952 21.011,158.658 20.171,159.038 19.222 C 159.444 18.208,160.057 17.508,160.814 17.194 C 161.451 16.930,162.328 16.111,162.763 15.372 C 163.199 14.633,164.165 13.775,164.909 13.464 C 165.755 13.110,166.453 12.437,166.772 11.667 C 167.311 10.367,168.384 9.842,171.489 9.362 C 172.653 9.182,173.252 8.865,173.419 8.340 C 173.795 7.154,175.144 6.519,178.400 5.995 C 180.050 5.729,181.670 5.283,182.000 5.004 C 185.005 2.462,202.531 1.359,207.989 3.368 M0.000 254.600 L 0.000 487.200 61.260 487.200 L 122.520 487.200 122.249 331.500 C 122.100 245.865,121.983 174.855,121.989 173.700 C 121.996 172.286,121.837 171.597,121.500 171.590 C 121.225 171.584,120.018 170.954,118.819 170.190 C 117.619 169.425,116.163 168.800,115.583 168.800 C 113.563 168.800,108.333 167.215,107.196 166.258 C 106.539 165.705,105.240 165.178,104.128 165.012 C 101.544 164.626,99.917 163.907,98.727 162.624 C 97.948 161.784,97.160 161.477,94.984 161.169 C 92.078 160.758,90.400 159.965,90.400 159.005 C 90.400 158.272,89.432 157.764,87.392 157.427 C 86.508 157.281,85.134 156.765,84.339 156.280 C 81.273 154.413,79.358 153.056,78.305 152.002 C 77.702 151.400,76.383 150.675,75.373 150.392 C 74.110 150.039,73.203 149.448,72.469 148.500 C 71.881 147.742,70.634 146.785,69.697 146.374 C 68.719 145.944,67.798 145.195,67.533 144.613 C 67.279 144.056,66.775 143.600,66.412 143.600 C 65.300 143.600,64.346 142.628,64.053 141.196 C 63.812 140.017,63.568 139.788,62.274 139.519 C 60.137 139.075,58.653 138.221,58.046 137.085 C 57.756 136.544,56.816 135.706,55.956 135.223 C 55.095 134.740,54.129 133.836,53.808 133.215 C 53.487 132.595,52.673 131.894,51.998 131.659 C 51.166 131.369,50.580 130.771,50.174 129.799 C 49.844 129.010,49.265 128.256,48.887 128.123 C 47.896 127.774,46.400 126.347,46.400 125.751 C 46.400 125.470,45.752 124.747,44.961 124.143 C 44.169 123.539,43.357 122.675,43.156 122.222 C 42.366 120.441,40.957 118.385,40.131 117.806 C 39.652 117.471,39.052 116.564,38.797 115.790 C 38.471 114.802,37.949 114.222,37.045 113.845 C 36.059 113.432,35.642 112.917,35.258 111.636 C 34.911 110.479,34.450 109.847,33.762 109.585 C 33.134 109.347,32.429 108.479,31.853 107.236 C 31.351 106.152,30.378 104.624,29.690 103.841 C 29.002 103.058,28.322 101.790,28.178 101.024 C 28.004 100.097,27.466 99.287,26.565 98.601 C 25.519 97.802,25.027 96.954,24.384 94.839 C 23.750 92.752,23.319 92.001,22.557 91.653 C 21.419 91.135,20.400 89.019,20.400 87.177 C 20.400 86.291,20.053 85.623,19.204 84.879 C 18.435 84.204,17.698 82.896,17.139 81.215 C 16.640 79.715,15.804 78.166,15.180 77.582 C 14.129 76.600,13.814 75.599,13.010 70.700 C 12.874 69.875,12.595 69.200,12.389 69.200 C 11.712 69.200,10.120 65.456,9.597 62.632 C 9.315 61.110,8.656 59.234,8.133 58.463 C 6.793 56.489,6.107 53.643,5.835 48.931 C 5.615 45.119,5.526 44.788,4.438 43.699 C 2.833 42.095,2.405 40.182,2.400 34.600 C 2.392 25.191,2.022 22.000,0.940 22.000 L 0.000 22.000 0.000 254.600 M270.667 205.067 C 270.520 205.213,270.400 268.753,270.400 346.267 L 270.400 487.200 335.200 487.200 L 400.000 487.200 400.000 376.200 L 400.000 265.200 399.049 265.200 C 398.526 265.200,397.864 265.482,397.578 265.826 C 397.292 266.171,396.551 266.715,395.931 267.036 C 395.310 267.357,394.541 268.245,394.222 269.010 C 393.902 269.774,393.465 270.400,393.251 270.400 C 392.758 270.400,390.400 272.738,390.400 273.228 C 390.400 273.429,389.735 273.910,388.922 274.297 C 387.849 274.808,387.354 275.352,387.114 276.287 C 386.844 277.340,386.503 277.649,385.234 277.991 C 384.155 278.282,383.616 278.680,383.459 279.304 C 383.252 280.123,379.960 283.789,377.000 286.498 C 375.301 288.053,374.876 288.472,373.880 289.576 C 368.259 295.811,365.664 297.804,364.369 296.881 C 363.844 296.506,362.696 295.927,361.818 295.593 C 360.871 295.232,359.849 294.432,359.305 293.625 C 358.801 292.876,357.846 291.935,357.184 291.532 C 356.522 291.129,355.807 290.345,355.596 289.790 C 355.385 289.235,354.578 288.406,353.803 287.949 C 353.029 287.492,352.293 286.712,352.168 286.216 C 352.044 285.720,351.241 284.921,350.384 284.439 C 349.527 283.958,348.593 283.077,348.308 282.483 C 348.023 281.888,347.138 281.094,346.340 280.719 C 345.397 280.275,344.743 279.612,344.467 278.819 C 344.233 278.150,343.584 277.393,343.023 277.138 C 342.463 276.883,341.662 276.093,341.243 275.384 C 340.825 274.674,339.969 273.785,339.341 273.408 C 338.714 273.031,337.840 272.167,337.400 271.488 C 336.960 270.809,336.060 269.958,335.400 269.596 C 334.740 269.235,333.995 268.531,333.745 268.032 C 333.494 267.533,332.710 266.773,332.002 266.343 C 331.295 265.913,330.520 265.043,330.281 264.410 C 330.034 263.755,329.236 262.939,328.424 262.512 C 327.641 262.101,326.765 261.277,326.478 260.681 C 326.190 260.085,325.428 259.325,324.784 258.992 C 324.140 258.659,323.341 257.860,323.009 257.217 C 322.676 256.574,321.846 255.722,321.164 255.324 C 320.482 254.926,319.588 253.946,319.178 253.147 C 318.720 252.256,318.040 251.596,317.416 251.440 C 316.837 251.294,315.977 250.515,315.415 249.624 C 314.873 248.766,314.076 247.951,313.644 247.814 C 313.212 247.677,312.498 246.954,312.057 246.207 C 311.617 245.460,310.749 244.585,310.128 244.261 C 309.508 243.937,308.677 243.071,308.282 242.336 C 307.887 241.601,306.988 240.730,306.284 240.400 C 305.580 240.070,304.792 239.367,304.534 238.837 C 304.275 238.308,303.517 237.645,302.848 237.363 C 302.082 237.041,301.415 236.331,301.044 235.443 C 300.649 234.497,300.008 233.847,299.096 233.466 C 298.293 233.130,297.537 232.429,297.246 231.749 C 296.976 231.117,296.181 230.237,295.479 229.793 C 294.778 229.349,293.968 228.494,293.680 227.892 C 293.391 227.290,292.628 226.525,291.984 226.192 C 291.340 225.859,290.532 225.043,290.189 224.378 C 289.845 223.714,288.928 222.866,288.150 222.496 C 287.268 222.075,286.530 221.329,286.188 220.511 C 285.887 219.790,285.393 219.200,285.090 219.200 C 284.457 219.200,283.036 217.731,282.672 216.699 C 282.536 216.314,281.796 215.699,281.028 215.333 C 280.192 214.934,279.477 214.222,279.245 213.557 C 279.032 212.946,278.139 211.993,277.261 211.438 C 276.382 210.884,275.546 210.061,275.403 209.611 C 275.260 209.160,274.602 208.511,273.940 208.169 C 273.270 207.823,272.483 206.938,272.163 206.173 C 271.601 204.828,271.201 204.532,270.667 205.067 M175.900 346.817 C 175.238 347.217,175.200 351.000,175.200 417.220 L 175.200 487.200 196.405 487.200 L 217.611 487.200 217.505 417.185 C 217.424 363.291,217.290 347.103,216.920 346.874 C 216.129 346.385,176.707 346.330,175.900 346.817 " stroke="none" fill="#f5f4f5" fill-rule="evenodd"></path><path id="path3" d="M1.900 2.936 C 0.470 3.236,-0.000 3.515,-0.000 4.067 C 0.000 5.004,0.865 5.000,3.400 4.052 C 6.128 3.032,46.527 2.741,48.880 3.724 C 51.059 4.634,51.684 6.440,52.026 12.807 C 52.343 18.703,52.858 22.653,54.033 28.200 C 54.452 30.180,55.073 33.330,55.412 35.200 C 55.752 37.070,56.565 39.680,57.219 41.000 C 57.873 42.320,58.666 44.750,58.981 46.400 C 59.882 51.116,62.763 58.077,64.762 60.363 C 65.225 60.893,65.970 62.555,66.417 64.057 C 67.230 66.788,70.634 72.497,71.692 72.903 C 71.995 73.019,72.816 74.190,73.517 75.504 C 74.217 76.819,75.073 78.129,75.418 78.415 C 75.764 78.702,76.522 79.761,77.103 80.768 C 77.684 81.776,78.394 82.744,78.680 82.920 C 78.966 83.096,79.486 83.816,79.836 84.520 C 80.697 86.255,95.478 100.734,97.069 101.401 C 97.767 101.694,98.648 102.407,99.027 102.986 C 99.407 103.565,100.289 104.277,100.988 104.569 C 101.686 104.861,102.901 105.664,103.686 106.353 C 104.471 107.043,105.970 107.986,107.018 108.449 C 108.066 108.913,109.301 109.690,109.762 110.176 C 111.060 111.544,118.334 115.085,120.905 115.599 C 122.256 115.869,123.707 116.478,124.412 117.071 C 125.125 117.672,127.250 118.557,129.638 119.249 C 131.852 119.891,134.324 120.752,135.131 121.163 C 136.936 122.082,141.382 122.800,145.260 122.800 C 146.859 122.800,150.425 123.068,153.184 123.394 C 157.204 123.871,165.743 124.015,196.200 124.120 C 231.060 124.241,234.376 124.309,236.329 124.950 C 239.474 125.982,240.736 125.659,238.400 124.419 C 235.779 123.029,230.832 122.857,192.000 122.813 C 154.086 122.769,139.909 122.404,138.848 121.444 C 137.569 120.286,134.595 119.258,131.200 118.801 C 128.630 118.454,127.556 118.118,126.800 117.423 C 125.043 115.807,123.864 115.261,121.102 114.784 C 118.811 114.389,118.329 114.160,117.901 113.269 C 117.398 112.219,116.892 111.968,113.695 111.184 C 112.757 110.954,111.404 110.252,110.688 109.624 C 109.972 108.995,108.628 108.277,107.700 108.027 C 106.773 107.777,105.833 107.235,105.612 106.822 C 105.089 105.846,102.654 104.350,101.057 104.026 C 100.114 103.834,99.767 103.525,99.666 102.785 C 99.485 101.449,99.096 101.122,97.346 100.838 C 96.111 100.637,95.707 100.317,95.025 98.997 C 94.571 98.119,93.827 97.236,93.370 97.035 C 92.914 96.835,92.252 96.168,91.899 95.553 C 91.546 94.938,90.639 94.176,89.883 93.860 C 88.955 93.473,88.366 92.878,88.070 92.029 C 87.771 91.172,87.185 90.586,86.226 90.185 C 85.452 89.862,84.551 89.080,84.224 88.447 C 83.897 87.814,83.016 86.935,82.268 86.493 C 81.272 85.905,80.835 85.313,80.643 84.289 C 80.448 83.247,80.085 82.766,79.225 82.410 C 78.590 82.147,77.968 81.525,77.843 81.028 C 77.718 80.531,76.896 79.221,76.017 78.116 C 75.137 77.012,74.065 75.284,73.633 74.277 C 73.135 73.116,72.417 72.222,71.671 71.837 C 70.829 71.401,70.420 70.830,70.231 69.826 C 69.966 68.413,68.112 65.200,67.562 65.200 C 67.399 65.200,67.072 64.294,66.835 63.187 C 66.324 60.806,64.992 58.048,64.206 57.747 C 63.900 57.629,63.539 56.963,63.405 56.267 C 62.645 52.314,62.191 50.988,61.207 49.857 C 60.138 48.627,59.502 46.562,58.996 42.683 C 58.822 41.353,58.372 40.341,57.526 39.377 C 56.325 38.009,56.298 37.882,55.739 30.894 C 55.098 22.870,54.764 21.066,53.378 18.125 C 52.486 16.232,52.400 15.557,52.400 10.447 C 52.400 5.102,52.356 4.793,51.435 3.722 L 50.469 2.600 27.135 2.569 C 13.054 2.550,3.047 2.695,1.900 2.936 M187.510 2.807 C 185.273 3.160,183.204 3.985,182.000 5.004 C 181.670 5.283,180.050 5.729,178.400 5.995 C 175.144 6.519,173.795 7.154,173.419 8.340 C 173.252 8.865,172.653 9.182,171.489 9.362 C 168.384 9.842,167.311 10.367,166.772 11.667 C 166.453 12.437,165.755 13.110,164.909 13.464 C 164.165 13.775,163.199 14.633,162.763 15.372 C 162.328 16.111,161.451 16.930,160.814 17.194 C 160.057 17.508,159.444 18.208,159.038 19.222 C 158.658 20.171,157.952 21.011,157.213 21.393 C 156.550 21.736,155.640 22.688,155.190 23.508 C 154.740 24.329,153.839 25.720,153.188 26.600 C 152.537 27.480,151.800 28.977,151.548 29.926 C 151.285 30.922,150.706 31.905,150.180 32.250 C 148.841 33.127,148.139 35.319,147.826 39.600 C 147.598 42.708,147.326 43.831,146.332 45.764 C 144.347 49.624,144.709 62.400,146.803 62.400 C 146.989 62.400,147.224 62.715,147.324 63.100 C 147.823 65.008,147.531 61.968,147.008 59.800 C 146.329 56.987,146.209 49.104,146.828 47.948 C 147.063 47.508,147.604 44.881,148.029 42.110 C 148.657 38.022,149.056 36.613,150.150 34.636 C 150.891 33.296,151.714 31.525,151.980 30.700 C 152.245 29.874,152.964 28.697,153.577 28.084 C 154.191 27.471,154.812 26.593,154.958 26.134 C 155.103 25.675,156.118 24.276,157.211 23.026 C 158.305 21.776,159.200 20.592,159.200 20.394 C 159.200 19.872,164.326 14.896,166.200 13.600 C 167.080 12.991,168.139 12.116,168.554 11.655 C 168.969 11.194,170.303 10.445,171.518 9.990 C 172.734 9.535,174.238 8.734,174.862 8.209 C 175.579 7.606,177.134 7.017,179.098 6.606 C 180.804 6.249,183.640 5.472,185.400 4.878 C 189.588 3.467,203.725 3.235,206.600 4.530 C 207.480 4.926,210.180 5.788,212.600 6.445 C 215.020 7.103,217.671 8.081,218.491 8.620 C 219.312 9.159,220.143 9.600,220.339 9.600 C 220.882 9.600,228.508 15.233,229.264 16.192 C 229.630 16.656,230.553 17.372,231.317 17.783 C 232.080 18.194,233.003 19.036,233.368 19.653 C 233.733 20.271,234.673 21.456,235.458 22.288 C 236.244 23.120,237.303 24.621,237.812 25.625 C 238.321 26.629,239.010 27.676,239.343 27.953 C 239.676 28.229,240.335 29.658,240.808 31.128 C 241.281 32.597,241.916 34.077,242.219 34.415 C 243.290 35.611,244.092 38.229,244.660 42.389 C 244.977 44.705,245.523 47.367,245.874 48.303 C 246.589 50.213,246.441 57.967,245.647 60.200 C 245.413 60.860,244.946 63.275,244.611 65.567 C 244.166 68.608,243.693 70.282,242.860 71.767 C 242.233 72.885,241.410 74.739,241.032 75.888 C 240.653 77.036,239.803 78.554,239.142 79.262 C 238.481 79.969,237.574 81.280,237.127 82.174 C 236.679 83.068,235.889 84.250,235.371 84.800 C 231.466 88.950,228.113 92.000,227.456 92.000 C 227.178 92.000,226.563 92.524,226.090 93.164 C 225.617 93.804,224.237 94.782,223.024 95.337 C 221.811 95.893,220.140 96.886,219.309 97.545 C 218.479 98.204,216.810 98.998,215.600 99.311 C 214.390 99.623,212.718 100.344,211.884 100.913 C 208.000 103.561,184.485 103.305,179.729 100.563 C 177.515 99.287,177.209 99.348,178.591 100.791 C 180.611 102.899,181.410 103.000,196.000 103.000 C 210.959 103.000,211.703 102.919,213.950 101.042 C 214.941 100.214,216.189 99.608,217.253 99.438 C 219.197 99.127,221.418 97.887,222.010 96.781 C 222.235 96.360,223.062 95.917,223.905 95.765 C 226.019 95.383,226.672 94.966,226.961 93.813 C 227.122 93.173,227.701 92.601,228.548 92.248 C 229.281 91.941,230.289 91.118,230.788 90.417 C 231.286 89.717,232.139 88.975,232.683 88.768 C 233.227 88.562,233.875 87.856,234.122 87.201 C 234.387 86.498,235.109 85.755,235.883 85.388 C 236.741 84.980,237.273 84.392,237.424 83.683 C 237.784 81.996,238.345 80.800,238.776 80.800 C 239.552 80.800,240.721 79.109,241.215 77.272 C 241.491 76.242,242.132 74.950,242.638 74.400 C 244.101 72.809,244.705 70.873,245.009 66.800 C 245.257 63.477,245.422 62.861,246.327 61.894 C 248.470 59.602,248.555 48.912,246.451 46.265 C 245.421 44.968,245.253 44.364,245.011 41.098 C 244.639 36.075,244.185 34.559,242.574 32.947 C 241.687 32.061,241.199 31.188,241.196 30.487 C 241.189 28.425,237.302 21.909,235.510 20.954 C 235.009 20.687,234.324 19.958,233.986 19.334 C 233.649 18.711,232.620 17.847,231.700 17.417 C 230.654 16.926,229.852 16.208,229.558 15.498 C 229.299 14.873,228.568 14.094,227.932 13.765 C 227.297 13.437,226.288 12.617,225.689 11.943 C 225.090 11.269,223.888 10.354,223.018 9.909 C 222.149 9.464,221.111 8.686,220.712 8.179 C 219.840 7.070,218.363 6.566,214.454 6.045 C 212.444 5.777,211.233 5.395,210.642 4.840 C 208.497 2.824,194.947 1.634,187.510 2.807 M0.000 21.400 C 0.000 21.773,0.378 22.000,1.000 22.000 C 1.622 22.000,2.000 21.773,2.000 21.400 C 2.000 21.027,1.622 20.800,1.000 20.800 C 0.378 20.800,0.000 21.027,0.000 21.400 M2.275 31.270 C 2.502 40.450,2.778 42.040,4.432 43.694 C 5.527 44.789,5.615 45.114,5.835 48.931 C 6.107 53.643,6.793 56.489,8.133 58.463 C 8.656 59.234,9.315 61.110,9.597 62.632 C 10.120 65.456,11.712 69.200,12.389 69.200 C 12.595 69.200,12.874 69.875,13.010 70.700 C 13.814 75.599,14.129 76.600,15.180 77.582 C 15.804 78.166,16.640 79.715,17.139 81.215 C 17.698 82.896,18.435 84.204,19.204 84.879 C 20.053 85.623,20.400 86.291,20.400 87.177 C 20.400 89.019,21.419 91.135,22.557 91.653 C 23.319 92.001,23.750 92.752,24.384 94.839 C 25.027 96.954,25.519 97.802,26.565 98.601 C 27.466 99.287,28.004 100.097,28.178 101.024 C 28.322 101.790,29.002 103.058,29.690 103.841 C 30.378 104.624,31.351 106.152,31.853 107.236 C 32.429 108.479,33.134 109.347,33.762 109.585 C 34.450 109.847,34.911 110.479,35.258 111.636 C 35.642 112.917,36.059 113.432,37.045 113.845 C 37.949 114.222,38.471 114.802,38.797 115.790 C 39.052 116.564,39.652 117.471,40.131 117.806 C 40.957 118.385,42.366 120.441,43.156 122.222 C 43.357 122.675,44.169 123.539,44.961 124.143 C 45.752 124.747,46.400 125.470,46.400 125.751 C 46.400 126.347,47.896 127.774,48.887 128.123 C 49.265 128.256,49.844 129.010,50.174 129.799 C 50.580 130.771,51.166 131.369,51.998 131.659 C 52.673 131.894,53.487 132.595,53.808 133.215 C 54.129 133.836,55.095 134.740,55.956 135.223 C 56.816 135.706,57.756 136.544,58.046 137.085 C 58.653 138.221,60.137 139.075,62.274 139.519 C 63.568 139.788,63.812 140.017,64.053 141.196 C 64.346 142.628,65.300 143.600,66.412 143.600 C 66.775 143.600,67.279 144.056,67.533 144.613 C 67.798 145.195,68.719 145.944,69.697 146.374 C 70.634 146.785,71.881 147.742,72.469 148.500 C 73.203 149.448,74.110 150.039,75.373 150.392 C 76.383 150.675,77.702 151.400,78.305 152.002 C 79.358 153.056,81.273 154.413,84.339 156.280 C 85.134 156.765,86.508 157.281,87.392 157.427 C 89.432 157.764,90.400 158.272,90.400 159.005 C 90.400 159.965,92.078 160.758,94.984 161.169 C 97.160 161.477,97.948 161.784,98.727 162.624 C 99.917 163.907,101.544 164.626,104.128 165.012 C 105.240 165.178,106.539 165.705,107.196 166.258 C 108.333 167.215,113.563 168.800,115.583 168.800 C 116.163 168.800,117.619 169.425,118.819 170.190 C 120.018 170.954,121.225 171.584,121.500 171.590 C 121.826 171.596,122.023 172.329,122.067 173.700 C 122.126 175.530,122.155 175.599,122.295 174.238 C 122.656 170.724,121.351 169.616,115.110 168.141 C 112.900 167.618,110.261 166.757,109.246 166.226 C 108.231 165.695,106.680 165.045,105.800 164.782 C 103.879 164.208,100.400 162.395,100.400 161.968 C 100.400 161.801,99.815 161.537,99.100 161.383 C 95.802 160.671,92.785 159.500,91.391 158.392 C 90.553 157.727,89.402 157.068,88.834 156.928 C 87.548 156.612,80.509 152.607,79.331 151.520 C 78.853 151.079,77.593 150.309,76.531 149.808 C 75.469 149.306,74.211 148.523,73.736 148.067 C 73.261 147.610,71.911 146.596,70.736 145.813 C 66.863 143.231,65.173 141.817,64.387 140.500 C 63.961 139.785,63.294 139.199,62.906 139.199 C 61.786 139.196,60.016 137.920,57.000 134.944 C 55.460 133.424,53.570 131.740,52.800 131.201 C 52.030 130.662,51.107 129.857,50.749 129.411 C 50.392 128.965,49.177 127.633,48.049 126.452 C 46.922 125.270,46.000 124.156,46.000 123.976 C 46.000 123.796,45.280 122.817,44.400 121.800 C 43.520 120.783,42.800 119.777,42.800 119.563 C 42.800 119.214,41.701 117.994,37.426 113.600 C 36.677 112.830,35.804 111.560,35.485 110.778 C 35.166 109.995,34.413 108.825,33.812 108.178 C 33.210 107.530,32.352 106.280,31.905 105.400 C 31.458 104.520,30.577 103.209,29.946 102.486 C 29.316 101.763,28.800 100.926,28.800 100.626 C 28.800 100.325,27.988 99.000,26.997 97.680 C 26.005 96.361,24.925 94.523,24.598 93.595 C 24.271 92.668,23.473 91.305,22.824 90.566 C 21.793 89.391,20.809 87.062,20.802 85.778 C 20.801 85.545,20.329 84.735,19.753 83.978 C 19.178 83.220,18.193 81.491,17.566 80.136 C 16.938 78.781,15.979 77.015,15.434 76.213 C 14.890 75.410,14.144 73.402,13.776 71.750 C 13.409 70.098,12.498 67.598,11.753 66.193 C 11.007 64.788,10.122 62.330,9.785 60.730 C 9.449 59.130,8.753 56.916,8.240 55.810 C 7.099 53.353,6.970 52.823,6.218 47.462 C 5.889 45.116,5.317 42.613,4.947 41.899 C 3.720 39.527,3.196 36.666,2.766 30.003 C 2.531 26.375,2.280 23.347,2.207 23.273 C 2.133 23.200,2.164 26.799,2.275 31.270 M147.646 65.000 C 147.565 69.533,148.648 73.220,150.278 73.963 C 150.785 74.194,151.200 74.686,151.200 75.056 C 151.200 77.049,152.593 80.035,153.874 80.791 C 154.767 81.318,155.200 81.875,155.200 82.498 C 155.200 83.754,156.178 85.058,157.340 85.349 C 157.997 85.514,158.373 85.963,158.535 86.777 C 158.672 87.461,159.242 88.268,159.881 88.682 C 160.491 89.077,162.252 90.664,163.795 92.210 C 165.759 94.177,167.096 95.167,168.256 95.513 C 169.195 95.792,170.192 96.433,170.560 96.995 C 171.420 98.308,172.977 99.070,175.405 99.365 L 177.400 99.608 175.798 99.075 C 174.916 98.782,173.075 97.745,171.707 96.771 C 170.338 95.797,168.191 94.280,166.935 93.400 C 164.371 91.603,158.800 86.364,158.800 85.750 C 158.800 85.530,158.263 84.953,157.607 84.468 C 156.950 83.983,156.115 83.004,155.751 82.293 C 155.387 81.582,154.594 80.431,153.989 79.737 C 153.384 79.042,152.578 77.512,152.198 76.337 C 151.818 75.161,150.983 73.367,150.343 72.348 C 149.675 71.286,148.856 69.069,148.423 67.148 C 148.007 65.307,147.658 64.340,147.646 65.000 M241.700 125.887 C 242.305 125.978,243.295 125.978,243.900 125.887 C 244.505 125.795,244.010 125.720,242.800 125.720 C 241.590 125.720,241.095 125.795,241.700 125.887 M247.222 126.570 C 248.444 126.838,250.604 127.614,252.022 128.295 C 253.440 128.976,255.680 129.738,257.000 129.989 C 260.183 130.594,261.346 131.074,262.304 132.175 C 262.763 132.703,264.287 133.452,265.898 133.941 C 267.436 134.409,268.940 135.086,269.240 135.448 C 269.539 135.809,271.054 136.683,272.606 137.390 C 275.163 138.555,280.013 141.850,280.622 142.836 C 280.757 143.054,281.567 143.674,282.422 144.214 C 283.277 144.754,284.244 145.711,284.570 146.341 C 284.896 146.972,285.732 147.723,286.428 148.012 C 287.125 148.300,288.003 149.043,288.379 149.662 C 288.756 150.281,289.677 151.201,290.426 151.706 C 291.175 152.211,291.971 152.990,292.194 153.437 C 292.417 153.884,293.266 154.835,294.081 155.549 C 294.895 156.264,295.670 157.189,295.801 157.604 C 295.933 158.019,296.437 158.479,296.920 158.626 C 298.174 159.005,299.600 160.412,299.600 161.270 C 299.600 161.671,299.767 162.000,299.972 162.000 C 301.223 162.000,299.258 158.687,297.600 158.000 C 296.955 157.733,296.307 157.128,296.162 156.657 C 295.798 155.481,288.092 148.068,286.554 147.415 C 285.821 147.104,285.210 146.493,285.069 145.931 C 284.808 144.894,279.873 140.400,278.994 140.400 C 278.697 140.400,278.085 139.881,277.634 139.247 C 277.042 138.416,276.028 137.837,274.006 137.174 C 272.463 136.668,271.200 136.131,271.200 135.982 C 271.200 134.885,268.927 133.614,266.170 133.169 C 264.213 132.854,263.200 132.510,263.200 132.161 C 263.200 130.986,261.520 130.085,258.487 129.634 C 256.543 129.345,255.133 128.904,254.615 128.423 C 253.431 127.323,249.131 125.993,246.913 126.041 L 245.000 126.082 247.222 126.570 M301.600 162.511 C 302.150 162.785,302.857 163.592,303.172 164.305 C 303.487 165.017,303.966 165.600,304.237 165.600 C 304.862 165.600,306.800 167.880,306.800 168.617 C 306.800 168.922,307.205 169.376,307.700 169.625 C 308.550 170.053,309.845 171.204,312.600 173.982 C 313.260 174.647,314.209 175.598,314.710 176.096 C 315.210 176.593,316.146 177.540,316.789 178.200 C 317.432 178.860,318.245 179.670,318.595 180.000 C 320.549 181.843,321.617 182.937,323.600 185.127 C 324.810 186.463,325.999 187.566,326.242 187.578 C 326.484 187.590,327.159 188.041,327.742 188.581 C 328.475 189.261,328.800 189.385,328.800 188.986 C 328.800 188.669,328.088 187.960,327.217 187.411 C 326.347 186.861,325.419 186.004,325.155 185.506 C 324.565 184.391,316.902 176.755,315.808 176.192 C 315.372 175.968,314.798 175.347,314.532 174.814 C 313.917 173.580,309.350 169.200,308.678 169.200 C 308.400 169.200,307.832 168.615,307.415 167.900 C 306.999 167.185,305.925 165.854,305.029 164.942 C 304.133 164.031,303.168 162.996,302.884 162.642 C 302.601 162.289,301.971 162.003,301.484 162.006 C 300.633 162.012,300.637 162.030,301.600 162.511 M122.217 177.075 C 121.945 178.158,122.379 486.856,122.653 487.167 C 122.734 487.258,122.800 417.283,122.800 331.667 C 122.800 246.050,122.730 176.000,122.643 176.000 C 122.557 176.000,122.365 176.484,122.217 177.075 M328.806 190.295 C 328.803 190.567,329.431 191.053,330.202 191.375 C 330.990 191.704,331.954 192.555,332.404 193.317 C 332.844 194.063,333.625 194.865,334.139 195.099 C 334.653 195.334,335.377 196.165,335.748 196.947 C 336.119 197.728,336.943 198.676,337.580 199.052 C 338.216 199.428,338.962 200.155,339.237 200.668 C 339.511 201.181,340.352 201.965,341.106 202.410 C 341.860 202.854,342.672 203.736,342.911 204.370 C 343.161 205.031,343.903 205.787,344.655 206.146 C 345.375 206.489,346.245 207.314,346.589 207.978 C 346.932 208.643,347.758 209.468,348.424 209.813 C 349.090 210.157,349.954 210.963,350.344 211.604 C 350.733 212.244,351.539 213.152,352.134 213.620 C 352.729 214.088,353.487 214.995,353.818 215.635 C 354.160 216.297,354.746 216.800,355.175 216.800 C 355.590 216.800,356.395 217.354,356.964 218.031 C 357.781 219.002,357.999 219.107,357.994 218.531 C 357.985 217.457,357.571 216.998,355.900 216.214 C 355.075 215.826,354.400 215.256,354.400 214.948 C 354.400 214.284,349.664 209.204,349.034 209.191 C 348.795 209.187,348.085 208.455,347.455 207.564 C 346.824 206.674,345.889 205.786,345.375 205.591 C 344.862 205.395,344.125 204.733,343.738 204.118 C 342.671 202.425,339.116 198.807,338.115 198.395 C 337.628 198.195,336.780 197.318,336.230 196.447 C 335.680 195.576,334.908 194.753,334.515 194.619 C 334.122 194.484,333.324 193.684,332.742 192.841 C 332.117 191.934,331.219 191.191,330.546 191.022 C 329.920 190.865,329.274 190.526,329.110 190.268 C 328.888 189.919,328.811 189.925,328.806 190.295 M272.073 206.039 C 272.321 206.748,273.086 207.632,273.837 208.075 C 274.567 208.506,275.277 209.212,275.414 209.644 C 275.551 210.076,276.382 210.884,277.261 211.438 C 278.139 211.993,279.032 212.946,279.245 213.557 C 279.477 214.222,280.192 214.934,281.028 215.333 C 281.796 215.699,282.536 216.314,282.672 216.699 C 283.036 217.731,284.457 219.200,285.090 219.200 C 285.393 219.200,285.887 219.790,286.188 220.511 C 286.530 221.329,287.268 222.075,288.150 222.496 C 288.928 222.866,289.845 223.714,290.189 224.378 C 290.532 225.043,291.340 225.859,291.984 226.192 C 292.628 226.525,293.391 227.290,293.680 227.892 C 293.968 228.494,294.778 229.349,295.479 229.793 C 296.181 230.237,296.976 231.117,297.246 231.749 C 297.537 232.429,298.293 233.130,299.096 233.466 C 300.008 233.847,300.649 234.497,301.044 235.443 C 301.415 236.331,302.082 237.041,302.848 237.363 C 303.517 237.645,304.275 238.308,304.534 238.837 C 304.792 239.367,305.580 240.070,306.284 240.400 C 306.988 240.730,307.887 241.593,308.282 242.319 C 308.677 243.044,309.574 243.977,310.275 244.391 C 310.977 244.805,311.830 245.684,312.171 246.344 C 312.512 247.003,313.160 247.660,313.611 247.803 C 314.061 247.946,314.873 248.766,315.415 249.624 C 315.977 250.515,316.837 251.294,317.416 251.440 C 318.040 251.596,318.720 252.256,319.178 253.147 C 319.588 253.946,320.482 254.926,321.164 255.324 C 321.846 255.722,322.676 256.574,323.009 257.217 C 323.341 257.860,324.140 258.659,324.784 258.992 C 325.428 259.325,326.190 260.085,326.478 260.681 C 326.765 261.277,327.641 262.101,328.424 262.512 C 329.236 262.939,330.034 263.755,330.281 264.410 C 330.520 265.043,331.295 265.913,332.002 266.343 C 332.710 266.773,333.494 267.533,333.745 268.032 C 333.995 268.531,334.740 269.235,335.400 269.596 C 336.060 269.958,336.960 270.809,337.400 271.488 C 337.840 272.167,338.714 273.031,339.341 273.408 C 339.969 273.785,340.825 274.674,341.243 275.384 C 341.662 276.093,342.463 276.883,343.023 277.138 C 343.584 277.393,344.233 278.150,344.467 278.819 C 344.743 279.612,345.397 280.275,346.340 280.719 C 347.138 281.094,348.023 281.888,348.308 282.483 C 348.593 283.077,349.527 283.958,350.384 284.439 C 351.241 284.921,352.044 285.720,352.168 286.216 C 352.293 286.712,353.029 287.492,353.803 287.949 C 354.578 288.406,355.385 289.235,355.596 289.790 C 355.807 290.345,356.522 291.129,357.184 291.532 C 357.846 291.935,358.801 292.876,359.305 293.625 C 359.849 294.432,360.871 295.232,361.818 295.593 C 362.696 295.927,363.844 296.506,364.369 296.881 C 365.664 297.804,368.259 295.811,373.880 289.576 C 374.876 288.472,375.301 288.053,377.000 286.498 C 379.960 283.789,383.252 280.123,383.459 279.304 C 383.616 278.680,384.155 278.282,385.234 277.991 C 386.503 277.649,386.844 277.340,387.114 276.287 C 387.354 275.352,387.849 274.808,388.922 274.297 C 389.735 273.910,390.400 273.429,390.400 273.228 C 390.400 272.738,392.758 270.400,393.251 270.400 C 393.465 270.400,393.902 269.774,394.222 269.010 C 394.541 268.245,395.310 267.357,395.931 267.036 C 396.551 266.715,397.292 266.171,397.578 265.826 C 397.864 265.482,398.526 265.200,399.049 265.200 C 399.976 265.200,400.000 265.113,400.000 261.800 C 400.000 258.462,399.982 258.400,399.024 258.400 C 398.487 258.400,397.931 258.213,397.790 257.984 C 397.649 257.755,396.828 257.123,395.966 256.579 C 395.105 256.035,394.400 255.336,394.400 255.026 C 394.400 254.397,389.710 249.428,388.851 249.147 C 388.549 249.048,387.907 248.263,387.425 247.402 C 386.813 246.309,386.167 245.739,385.280 245.509 C 384.456 245.295,383.788 244.750,383.376 243.954 C 382.514 242.286,380.116 239.736,378.311 238.568 C 377.493 238.038,376.553 237.083,376.224 236.446 C 375.894 235.808,375.079 235.097,374.413 234.865 C 373.712 234.620,372.994 233.971,372.707 233.321 C 372.161 232.083,368.418 228.211,366.671 227.077 C 366.058 226.679,365.443 226.049,365.305 225.677 C 364.854 224.469,360.424 220.351,359.195 219.999 C 357.558 219.529,357.691 219.860,359.432 220.588 C 360.322 220.959,361.024 221.605,361.286 222.293 C 361.518 222.902,362.269 223.760,362.954 224.201 C 363.639 224.642,364.450 225.569,364.755 226.262 C 365.061 226.955,365.724 227.710,366.228 227.940 C 366.732 228.170,367.562 228.925,368.072 229.618 C 368.583 230.311,369.456 231.115,370.014 231.405 C 370.572 231.695,371.292 232.439,371.614 233.059 C 372.206 234.199,376.652 238.800,377.161 238.800 C 377.509 238.800,383.010 244.452,383.234 245.039 C 383.325 245.279,383.940 245.729,384.600 246.038 C 385.260 246.348,386.109 247.220,386.487 247.977 C 386.865 248.735,387.495 249.528,387.887 249.741 C 388.279 249.954,389.230 250.790,390.000 251.598 C 390.770 252.407,391.867 253.354,392.439 253.703 C 393.010 254.052,393.707 254.892,393.987 255.569 C 394.268 256.246,394.726 256.800,395.006 256.800 C 395.286 256.800,396.074 257.322,396.758 257.960 C 399.213 260.254,397.935 266.800,395.032 266.800 C 394.766 266.800,394.268 267.387,393.926 268.105 C 393.584 268.822,392.786 269.677,392.152 270.005 C 390.993 270.604,387.399 274.144,385.670 276.391 C 385.158 277.056,384.504 277.600,384.216 277.600 C 383.928 277.600,383.381 278.095,383.002 278.700 C 382.273 279.862,381.076 281.213,378.543 283.736 C 373.587 288.670,371.002 291.114,369.801 292.000 C 369.056 292.550,367.812 293.512,367.036 294.138 L 365.625 295.276 363.731 294.553 C 361.101 293.548,357.042 290.200,351.383 284.366 C 348.733 281.635,345.561 278.410,344.332 277.200 C 343.103 275.990,340.051 272.855,337.549 270.234 C 335.047 267.613,332.138 264.643,331.084 263.634 C 330.031 262.625,326.881 259.480,324.084 256.644 C 318.517 250.999,317.777 250.267,311.584 244.278 C 302.381 235.377,283.188 216.283,279.600 212.458 C 277.510 210.230,274.863 207.593,273.718 206.597 L 271.637 204.785 272.073 206.039 M270.198 348.200 C 270.198 424.760,270.244 456.020,270.300 417.668 C 270.356 379.315,270.356 316.675,270.300 278.468 C 270.244 240.260,270.198 271.640,270.198 348.200 M176.586 345.961 C 174.473 346.869,174.608 342.233,174.492 417.461 C 174.420 464.629,174.517 487.200,174.792 487.200 C 175.068 487.200,175.200 464.480,175.200 417.214 L 175.200 347.228 176.024 346.787 C 176.882 346.328,216.066 346.346,216.811 346.807 C 217.518 347.243,217.541 349.424,217.570 418.100 C 217.590 463.880,217.735 487.200,218.000 487.200 C 218.447 487.200,218.586 352.266,218.142 349.027 C 217.682 345.672,218.601 345.814,196.618 345.705 C 186.048 345.653,177.034 345.768,176.586 345.961 " stroke="none" fill="#e4e4e4" fill-rule="evenodd"></path><path id="path4" d="M4.084 5.602 C 3.290 6.454,2.310 9.130,2.612 9.620 C 2.710 9.778,3.063 14.834,3.397 20.854 C 4.087 33.313,4.453 36.313,5.594 38.893 C 6.039 39.898,6.761 43.096,7.200 46.000 C 7.754 49.665,8.314 51.909,9.034 53.339 C 9.604 54.473,10.321 56.840,10.628 58.600 C 10.966 60.536,11.739 62.906,12.586 64.600 C 13.355 66.140,14.273 68.570,14.625 70.000 C 14.977 71.430,15.776 73.500,16.400 74.600 C 17.024 75.700,17.850 77.410,18.236 78.400 C 18.622 79.390,19.454 80.963,20.085 81.896 C 20.716 82.828,21.500 84.351,21.828 85.279 C 22.155 86.207,22.944 87.784,23.581 88.783 C 24.218 89.782,25.048 91.410,25.424 92.400 C 25.801 93.390,26.600 94.834,27.199 95.608 C 27.799 96.383,28.662 97.745,29.116 98.636 C 29.571 99.527,30.586 101.025,31.371 101.966 C 32.157 102.906,32.800 103.814,32.800 103.983 C 32.800 104.152,33.358 104.990,34.040 105.845 C 34.723 106.700,35.725 108.274,36.269 109.343 C 36.813 110.412,37.919 111.971,38.729 112.807 C 39.538 113.643,41.010 115.339,42.000 116.575 C 42.990 117.811,44.430 119.530,45.200 120.394 C 45.970 121.258,47.860 123.421,49.400 125.200 C 52.449 128.721,61.442 137.066,63.142 137.951 C 63.724 138.254,65.022 139.334,66.027 140.351 C 67.032 141.368,68.910 142.920,70.199 143.800 C 71.489 144.680,73.456 146.087,74.572 146.927 C 75.687 147.767,77.680 148.979,79.000 149.621 C 80.320 150.264,82.210 151.416,83.200 152.183 C 84.190 152.949,85.503 153.962,86.118 154.433 C 86.733 154.905,88.171 155.646,89.314 156.080 C 90.458 156.515,92.384 157.467,93.596 158.197 C 94.808 158.926,96.790 159.744,98.000 160.013 C 99.210 160.283,101.280 161.096,102.600 161.820 C 103.920 162.544,106.080 163.442,107.400 163.816 C 108.720 164.189,110.880 165.008,112.200 165.636 C 113.520 166.263,116.288 167.094,118.352 167.482 C 121.481 168.070,122.211 168.351,122.752 169.176 C 123.346 170.083,123.408 183.333,123.502 328.682 C 123.592 469.041,123.672 487.200,124.202 487.200 C 125.070 487.200,125.117 170.733,124.249 168.656 C 123.619 167.147,122.361 166.536,119.396 166.297 C 118.294 166.208,116.854 165.842,116.196 165.482 C 113.633 164.082,112.202 163.525,109.310 162.803 C 107.658 162.390,105.923 161.701,105.453 161.273 C 104.116 160.052,102.422 159.349,99.527 158.814 C 97.611 158.460,96.493 157.997,95.579 157.181 C 94.321 156.058,91.341 154.800,89.938 154.800 C 89.542 154.800,88.934 154.365,88.585 153.834 C 88.237 153.303,87.268 152.594,86.432 152.259 C 85.595 151.925,84.240 151.018,83.420 150.245 C 82.601 149.472,81.091 148.535,80.065 148.162 C 79.039 147.790,77.840 147.082,77.400 146.589 C 76.960 146.095,75.868 145.324,74.973 144.875 C 74.079 144.426,73.106 143.769,72.812 143.415 C 72.518 143.061,71.117 142.122,69.698 141.328 C 67.930 140.340,66.999 139.543,66.739 138.798 C 66.378 137.761,64.977 136.800,63.827 136.800 C 63.533 136.800,62.997 136.349,62.636 135.799 C 62.275 135.248,61.264 134.346,60.390 133.794 C 59.515 133.242,58.800 132.548,58.800 132.252 C 58.800 131.956,57.224 130.341,55.297 128.663 C 53.371 126.984,51.616 125.214,51.397 124.730 C 51.179 124.245,50.466 123.556,49.814 123.199 C 49.162 122.842,48.262 121.842,47.814 120.975 C 47.366 120.109,46.611 119.229,46.136 119.021 C 45.661 118.812,44.985 118.038,44.633 117.300 C 44.281 116.563,43.478 115.663,42.849 115.302 C 42.220 114.941,41.488 114.046,41.223 113.313 C 40.958 112.580,40.188 111.580,39.511 111.090 C 38.778 110.560,37.801 109.151,37.093 107.605 C 36.440 106.177,35.564 104.770,35.147 104.478 C 34.730 104.186,34.112 103.284,33.774 102.473 C 33.436 101.663,32.643 100.460,32.013 99.800 C 31.382 99.140,30.385 97.575,29.797 96.322 C 29.209 95.069,28.316 93.775,27.812 93.445 C 27.260 93.083,26.786 92.250,26.615 91.341 C 26.261 89.454,25.141 87.231,24.043 86.238 C 23.579 85.819,23.200 85.167,23.200 84.788 C 23.200 83.437,21.947 80.582,20.834 79.401 C 20.212 78.741,19.320 77.040,18.851 75.622 C 18.383 74.204,17.577 72.584,17.061 72.022 C 16.341 71.239,15.976 70.074,15.495 67.033 C 14.942 63.531,14.726 62.933,13.652 61.929 C 12.450 60.806,12.286 60.301,11.796 56.200 C 11.460 53.392,10.857 51.608,9.732 50.102 C 8.893 48.979,8.685 48.007,8.190 42.902 C 7.583 36.648,7.373 35.659,6.051 32.800 C 5.501 31.613,5.216 30.182,5.214 28.600 C 5.212 27.280,4.993 22.838,4.728 18.728 C 4.164 10.002,4.375 8.418,6.162 7.944 C 7.166 7.678,38.165 7.364,46.257 7.538 C 49.878 7.616,49.677 7.050,49.824 17.600 C 49.951 26.747,50.548 31.154,52.061 34.119 C 52.498 34.977,53.180 37.604,53.576 39.957 C 53.971 42.311,54.634 44.836,55.047 45.569 C 55.461 46.301,56.012 47.283,56.271 47.750 C 56.530 48.218,57.022 50.209,57.364 52.175 C 57.863 55.042,58.235 56.059,59.244 57.315 C 59.936 58.176,60.746 59.690,61.044 60.679 C 61.341 61.668,62.109 63.074,62.750 63.804 C 63.849 65.056,64.400 66.323,64.976 68.916 C 65.112 69.529,65.777 70.609,66.453 71.316 C 67.129 72.022,68.008 73.230,68.405 74.000 C 68.802 74.770,69.674 75.920,70.344 76.556 C 71.013 77.192,71.669 78.205,71.801 78.806 C 71.933 79.407,72.500 80.327,73.061 80.850 C 73.621 81.372,74.874 82.970,75.844 84.400 C 80.190 90.804,83.722 94.800,85.037 94.800 C 85.290 94.800,85.917 95.413,86.430 96.162 C 86.943 96.911,87.873 97.825,88.496 98.193 C 89.120 98.561,90.047 99.524,90.557 100.331 C 91.089 101.174,92.233 102.175,93.242 102.679 C 94.209 103.163,95.758 104.288,96.685 105.179 C 97.611 106.071,98.691 106.800,99.085 106.800 C 99.478 106.800,100.283 107.405,100.873 108.145 C 101.469 108.892,102.458 109.592,103.099 109.720 C 103.734 109.847,105.141 110.698,106.227 111.611 C 107.312 112.525,108.965 113.609,109.900 114.022 C 110.835 114.434,111.600 114.953,111.600 115.176 C 111.600 115.836,113.708 116.728,116.779 117.369 C 118.834 117.797,120.042 118.306,120.996 119.143 C 121.942 119.973,123.247 120.526,125.466 121.036 C 127.212 121.438,129.085 122.152,129.696 122.649 C 130.918 123.644,133.094 124.151,139.000 124.816 C 141.200 125.063,143.816 125.523,144.814 125.837 C 150.956 127.769,149.792 127.721,197.600 128.004 C 243.223 128.273,244.788 128.331,246.245 129.787 C 247.148 130.691,247.987 130.983,252.007 131.793 C 253.906 132.176,256.836 133.165,258.661 134.039 C 260.454 134.897,262.383 135.600,262.947 135.600 C 263.511 135.600,264.563 136.107,265.286 136.727 C 266.538 137.801,269.970 139.600,270.767 139.600 C 270.974 139.600,271.385 139.842,271.680 140.137 C 271.976 140.433,273.023 141.183,274.006 141.804 C 274.990 142.425,276.823 143.788,278.079 144.834 C 279.335 145.879,280.686 146.839,281.081 146.966 C 281.477 147.094,282.102 147.731,282.471 148.382 C 282.841 149.033,283.787 149.834,284.574 150.163 C 285.420 150.517,286.165 151.182,286.396 151.791 C 286.612 152.357,287.412 153.188,288.176 153.639 C 288.940 154.089,289.675 154.807,289.810 155.233 C 289.946 155.659,290.760 156.573,291.620 157.265 C 292.481 157.956,293.291 158.857,293.421 159.267 C 293.552 159.678,294.356 160.370,295.209 160.805 C 296.155 161.287,297.014 162.129,297.408 162.961 C 297.779 163.742,298.558 164.534,299.228 164.812 C 299.873 165.079,300.400 165.529,300.400 165.813 C 300.400 166.436,302.655 168.400,303.370 168.400 C 303.650 168.400,304.166 169.132,304.518 170.027 C 304.950 171.129,305.518 171.791,306.278 172.081 C 306.895 172.316,307.760 173.064,308.201 173.743 C 308.641 174.422,309.451 175.198,310.001 175.469 C 310.550 175.739,311.280 176.465,311.622 177.080 C 311.964 177.696,312.864 178.513,313.622 178.895 C 314.414 179.294,315.218 180.113,315.511 180.820 C 315.793 181.497,316.527 182.340,317.143 182.693 C 317.759 183.047,318.559 183.851,318.920 184.480 C 319.281 185.109,320.091 185.919,320.720 186.280 C 321.349 186.641,322.160 187.453,322.523 188.085 C 322.885 188.716,323.814 189.497,324.587 189.820 C 325.533 190.216,326.180 190.856,326.565 191.777 C 326.879 192.531,327.656 193.415,328.291 193.743 C 328.925 194.072,329.642 194.775,329.885 195.307 C 330.127 195.838,330.973 196.581,331.766 196.957 C 332.706 197.403,333.408 198.123,333.786 199.029 C 334.106 199.793,334.905 200.727,335.563 201.104 C 336.220 201.482,336.944 202.198,337.171 202.696 C 337.398 203.194,338.145 203.943,338.832 204.361 C 339.518 204.778,340.426 205.688,340.848 206.383 C 341.270 207.077,342.176 207.881,342.861 208.169 C 343.609 208.483,344.320 209.198,344.638 209.956 C 344.931 210.651,345.686 211.516,346.317 211.878 C 346.948 212.240,347.759 213.051,348.120 213.680 C 348.481 214.309,349.277 215.111,349.888 215.463 C 350.500 215.815,351.270 216.665,351.600 217.351 C 351.989 218.161,352.669 218.752,353.533 219.031 C 354.527 219.352,355.055 219.883,355.607 221.117 C 356.080 222.173,356.684 222.856,357.278 223.005 C 357.789 223.133,358.516 223.777,358.894 224.434 C 359.271 225.092,360.163 225.875,360.874 226.174 C 361.766 226.549,362.305 227.136,362.607 228.059 C 362.886 228.913,363.490 229.618,364.271 230.000 C 364.946 230.330,365.780 231.091,366.125 231.692 C 366.471 232.292,367.333 233.136,368.043 233.567 C 368.752 233.999,369.566 234.909,369.852 235.589 C 370.159 236.320,370.880 237.041,371.611 237.348 C 372.291 237.634,373.201 238.448,373.633 239.157 C 374.064 239.867,374.944 240.749,375.588 241.119 C 376.232 241.488,376.944 242.198,377.171 242.696 C 377.398 243.194,378.145 243.943,378.832 244.361 C 379.518 244.778,380.401 245.647,380.793 246.292 C 381.185 246.936,382.075 247.700,382.771 247.988 C 383.574 248.321,384.242 249.006,384.601 249.865 C 384.912 250.609,385.684 251.515,386.315 251.877 C 386.947 252.240,387.751 253.038,388.103 253.651 C 388.455 254.264,389.386 255.034,390.171 255.362 C 390.957 255.691,391.600 256.225,391.600 256.549 C 391.600 257.355,393.539 259.600,394.236 259.600 C 395.409 259.600,394.979 263.868,393.774 264.171 C 393.078 264.346,392.514 264.952,392.018 266.058 C 391.481 267.259,390.865 267.878,389.683 268.407 C 388.800 268.803,387.957 269.505,387.810 269.968 C 387.663 270.430,387.040 271.069,386.426 271.387 C 385.811 271.705,385.005 272.602,384.636 273.382 C 384.266 274.161,383.424 275.078,382.764 275.419 C 382.104 275.760,381.229 276.590,380.820 277.264 C 380.410 277.938,379.658 278.697,379.149 278.950 C 378.640 279.204,377.802 280.039,377.286 280.806 C 376.770 281.573,375.912 282.430,375.379 282.710 C 374.846 282.991,374.134 283.754,373.797 284.406 C 373.459 285.058,372.487 285.947,371.636 286.382 C 370.634 286.893,369.939 287.599,369.665 288.386 C 369.432 289.054,368.976 289.600,368.651 289.600 C 367.827 289.600,365.600 291.546,365.600 292.266 C 365.600 292.629,365.196 292.382,364.564 291.631 C 363.995 290.954,363.259 290.400,362.929 290.400 C 362.381 290.400,360.743 288.990,357.585 285.800 C 355.736 283.933,355.078 283.273,354.000 282.207 C 353.450 281.663,352.730 280.951,352.400 280.624 C 351.544 279.778,349.427 277.639,348.548 276.734 C 348.137 276.311,346.540 274.710,345.000 273.178 C 342.038 270.230,341.965 270.157,337.719 265.827 C 336.224 264.302,334.587 262.682,334.082 262.227 C 333.578 261.772,332.048 260.232,330.682 258.806 C 327.650 255.636,326.527 254.510,323.196 251.296 C 321.768 249.919,320.145 248.299,319.589 247.696 C 319.032 247.093,317.322 245.393,315.789 243.917 C 314.255 242.442,312.640 240.858,312.200 240.398 C 311.760 239.937,309.420 237.672,307.000 235.364 C 304.580 233.056,302.468 231.040,302.308 230.884 C 302.147 230.728,301.143 229.572,300.076 228.316 C 299.010 227.060,296.981 225.001,295.569 223.741 C 292.993 221.444,284.849 213.200,282.192 210.200 C 281.413 209.320,280.324 208.150,279.772 207.600 C 279.221 207.050,278.024 205.835,277.113 204.900 C 276.201 203.965,275.240 203.200,274.976 203.200 C 274.712 203.200,273.833 202.390,273.021 201.400 C 269.957 197.660,268.149 200.367,267.946 209.000 C 267.445 230.317,268.058 487.200,268.610 487.200 C 269.156 487.200,269.217 472.278,269.189 345.821 C 269.156 195.553,269.083 202.000,270.809 202.000 C 271.023 202.000,288.883 219.667,310.499 241.261 C 370.009 300.710,364.753 295.841,366.859 293.478 C 367.485 292.775,368.133 292.066,368.299 291.902 C 368.464 291.738,370.850 289.390,373.600 286.683 C 376.350 283.976,379.709 280.600,381.065 279.181 C 383.932 276.180,384.883 275.227,388.365 271.872 C 389.775 270.512,391.395 268.903,391.965 268.295 C 392.534 267.687,393.855 266.353,394.900 265.330 C 397.257 263.024,397.566 260.768,395.746 259.142 C 395.166 258.624,394.311 257.763,393.846 257.228 C 393.381 256.694,391.650 254.961,390.000 253.377 C 388.350 251.793,386.730 250.198,386.400 249.833 C 385.770 249.136,383.956 247.322,382.600 246.033 C 382.160 245.615,380.689 244.131,379.331 242.736 C 377.973 241.341,376.443 239.814,375.931 239.343 C 375.419 238.872,374.511 237.972,373.913 237.343 C 373.315 236.714,372.415 235.804,371.913 235.319 C 368.326 231.859,365.321 228.853,364.622 228.027 C 364.170 227.492,362.635 225.962,361.210 224.627 C 359.786 223.292,358.144 221.682,357.562 221.049 C 356.979 220.415,356.031 219.425,355.455 218.849 C 354.878 218.272,353.190 216.556,351.703 215.036 C 350.216 213.516,346.120 209.430,342.600 205.956 C 339.080 202.483,335.957 199.379,335.660 199.060 C 334.149 197.436,332.291 195.557,329.971 193.303 C 328.557 191.930,326.860 190.259,326.200 189.590 C 325.540 188.922,324.764 188.155,324.475 187.887 C 324.080 187.520,312.343 175.795,306.970 170.400 C 306.641 170.070,305.783 169.170,305.064 168.400 C 304.344 167.630,302.595 165.892,301.178 164.539 C 299.760 163.185,298.134 161.565,297.565 160.939 C 296.996 160.312,296.096 159.428,295.565 158.973 C 295.034 158.518,292.564 156.088,290.076 153.573 C 283.933 147.363,282.969 146.436,280.839 144.699 C 277.972 142.359,273.616 139.422,271.200 138.200 C 269.990 137.587,268.460 136.685,267.800 136.194 C 267.140 135.702,265.649 134.992,264.488 134.614 C 263.326 134.236,261.845 133.481,261.197 132.936 C 260.382 132.251,258.732 131.653,255.860 131.004 C 253.572 130.488,250.823 129.626,249.751 129.090 C 244.842 126.636,239.822 126.364,195.400 126.149 C 164.905 126.002,156.837 125.854,154.549 125.402 C 152.980 125.091,148.957 124.551,145.608 124.201 C 137.804 123.384,135.956 123.022,133.229 121.772 C 132.003 121.210,129.785 120.493,128.301 120.180 C 125.454 119.580,124.011 119.001,121.408 117.411 C 120.532 116.877,119.148 116.326,118.333 116.189 C 117.517 116.051,115.819 115.317,114.560 114.559 C 113.300 113.800,111.512 112.845,110.586 112.435 C 109.661 112.026,108.778 111.488,108.626 111.241 C 108.473 110.994,107.025 110.066,105.409 109.179 C 103.792 108.292,102.241 107.290,101.962 106.954 C 101.682 106.617,100.765 105.990,99.924 105.561 C 99.083 105.132,98.171 104.410,97.898 103.957 C 97.624 103.504,96.680 102.765,95.800 102.314 C 93.655 101.215,81.849 89.369,77.920 84.373 C 77.326 83.618,76.199 82.190,75.415 81.200 C 74.631 80.210,73.677 78.891,73.295 78.269 C 72.913 77.647,71.910 76.207,71.067 75.069 C 70.224 73.931,69.169 72.280,68.722 71.400 C 68.275 70.520,67.573 69.431,67.161 68.981 C 66.749 68.530,66.046 67.090,65.597 65.781 C 65.149 64.471,64.272 62.680,63.648 61.800 C 63.025 60.920,62.194 59.210,61.802 58.000 C 61.410 56.790,60.682 54.985,60.184 53.990 C 59.685 52.994,58.880 50.834,58.395 49.190 C 57.909 47.545,57.001 45.120,56.377 43.800 C 55.637 42.233,54.954 39.665,54.409 36.400 C 53.951 33.650,53.285 30.590,52.929 29.600 C 52.108 27.315,51.721 23.991,51.239 15.089 C 50.943 9.609,50.688 7.636,50.128 6.489 L 49.400 5.000 27.119 4.897 C 5.208 4.795,4.825 4.807,4.084 5.602 M184.170 6.546 C 180.104 7.593,177.162 8.583,176.170 9.238 C 175.306 9.809,173.910 10.502,173.066 10.780 C 172.222 11.058,170.962 11.772,170.266 12.368 C 169.570 12.964,168.370 13.879,167.600 14.403 C 166.830 14.926,165.240 16.220,164.068 17.277 C 162.895 18.335,161.803 19.200,161.641 19.200 C 161.480 19.200,160.925 19.965,160.410 20.900 C 159.894 21.835,158.691 23.447,157.736 24.483 C 156.781 25.518,156.000 26.542,156.000 26.759 C 156.000 26.975,155.280 27.983,154.400 29.000 C 153.520 30.017,152.800 31.168,152.800 31.559 C 152.800 31.950,152.086 33.694,151.214 35.435 C 147.544 42.756,147.410 63.331,150.984 70.600 C 151.742 72.140,152.723 74.210,153.166 75.200 C 155.147 79.633,164.527 91.196,166.146 91.202 C 166.396 91.203,167.500 91.881,168.600 92.709 C 173.258 96.215,175.617 97.582,178.067 98.195 C 179.460 98.544,181.590 99.262,182.800 99.791 C 188.602 102.326,206.557 102.306,210.497 99.760 C 211.320 99.228,212.940 98.593,214.097 98.349 C 216.539 97.833,217.423 97.434,218.800 96.224 C 219.350 95.741,220.610 95.007,221.600 94.593 C 225.514 92.954,234.410 84.515,236.772 80.200 C 237.254 79.320,238.267 77.618,239.024 76.418 C 239.781 75.217,240.400 73.841,240.400 73.358 C 240.400 72.876,240.957 71.428,241.637 70.141 C 245.281 63.246,245.285 41.822,241.643 36.031 C 241.010 35.024,240.278 33.272,240.015 32.138 C 239.711 30.822,239.043 29.520,238.170 28.538 C 237.417 27.692,236.800 26.861,236.800 26.691 C 236.800 26.521,236.105 25.621,235.257 24.691 C 234.408 23.761,233.238 22.240,232.658 21.310 C 232.078 20.381,231.107 19.313,230.501 18.938 C 229.896 18.563,228.860 17.760,228.200 17.153 C 216.406 6.315,200.214 2.414,184.170 6.546 M203.200 7.611 C 209.419 8.226,212.105 8.775,213.011 9.618 C 213.457 10.033,215.167 10.926,216.811 11.603 C 218.652 12.361,220.148 13.277,220.706 13.988 C 221.205 14.623,222.209 15.339,222.937 15.579 C 223.666 15.820,224.657 16.551,225.140 17.205 C 225.624 17.859,226.690 18.739,227.510 19.162 C 229.186 20.026,231.131 21.972,232.212 23.869 C 232.610 24.566,233.348 25.358,233.851 25.627 C 234.355 25.897,235.138 26.907,235.591 27.871 C 236.045 28.835,236.855 29.824,237.392 30.069 C 238.151 30.415,238.424 30.924,238.621 32.357 C 239.063 35.588,239.566 37.033,240.875 38.838 C 243.202 42.047,243.541 64.108,241.300 66.493 C 240.131 67.737,239.303 69.834,238.961 72.412 C 238.749 74.011,238.396 74.819,237.580 75.579 C 236.978 76.141,236.097 77.514,235.623 78.630 C 235.149 79.747,234.154 81.234,233.410 81.935 C 232.667 82.636,231.863 83.802,231.624 84.526 C 231.304 85.496,230.816 85.978,229.770 86.356 C 228.974 86.644,228.156 87.298,227.906 87.847 C 227.661 88.384,226.727 89.153,225.830 89.554 C 224.934 89.955,223.482 90.947,222.604 91.758 C 221.726 92.569,220.556 93.341,220.004 93.473 C 218.294 93.881,216.868 94.757,216.614 95.555 C 216.425 96.153,215.637 96.454,212.983 96.947 C 211.118 97.293,209.212 97.779,208.747 98.029 C 205.490 99.771,202.265 100.400,196.630 100.390 C 190.826 100.381,189.880 100.240,185.800 98.780 C 184.480 98.308,181.791 97.570,179.824 97.141 C 177.275 96.584,176.083 96.126,175.677 95.546 C 175.363 95.098,174.329 94.398,173.379 93.991 C 172.429 93.584,171.342 92.778,170.964 92.200 C 170.585 91.623,169.358 90.687,168.238 90.120 C 167.117 89.553,165.467 88.304,164.572 87.345 C 163.677 86.385,162.656 85.600,162.304 85.600 C 161.917 85.600,161.559 85.123,161.399 84.395 C 161.246 83.699,160.559 82.752,159.771 82.151 C 159.021 81.579,157.839 80.096,157.144 78.855 C 156.449 77.615,155.478 76.150,154.987 75.600 C 154.472 75.023,153.977 73.788,153.819 72.682 C 153.669 71.627,152.935 69.612,152.188 68.205 C 149.219 62.609,149.062 42.792,151.955 38.798 C 152.769 37.674,153.403 36.073,153.842 34.031 C 154.409 31.393,154.667 30.861,155.658 30.292 C 156.384 29.876,156.904 29.180,157.055 28.423 C 157.206 27.668,157.930 26.698,158.992 25.828 C 159.924 25.064,160.911 23.898,161.185 23.236 C 161.459 22.575,162.672 21.287,163.880 20.375 C 165.088 19.463,166.441 18.098,166.888 17.341 C 167.334 16.585,168.380 15.618,169.212 15.194 C 170.044 14.770,171.092 13.955,171.540 13.385 C 171.989 12.814,173.041 12.168,173.878 11.948 C 175.760 11.454,177.877 10.514,179.215 9.577 C 180.508 8.672,183.738 8.088,189.800 7.662 C 196.924 7.161,198.588 7.155,203.200 7.611 M174.276 342.083 C 169.849 343.268,170.062 339.349,170.028 419.900 L 170.000 487.200 171.000 487.200 L 172.000 487.200 172.013 417.100 C 172.023 362.628,172.134 346.858,172.513 346.361 C 173.941 344.489,174.196 344.468,196.221 344.353 C 218.251 344.239,217.798 344.205,219.900 346.120 L 220.800 346.939 220.800 417.070 C 220.800 486.933,220.803 487.200,221.600 487.200 C 222.397 487.200,222.400 486.933,222.400 416.460 L 222.400 345.720 221.239 344.117 C 220.362 342.906,219.652 342.407,218.337 342.076 C 216.043 341.499,176.436 341.505,174.276 342.083 " stroke="none" fill="#94c4cc" fill-rule="evenodd"></path></g></svg>