<svg width="80" height="80" viewBox="0 0 80 80" fill="none" xmlns="http://www.w3.org/2000/svg">
<mask id="mask0_148_948" style="mask-type:alpha" maskUnits="userSpaceOnUse" x="0" y="0" width="80" height="80">
<rect width="80" height="80" fill="#D9D9D9"/>
</mask>
<g mask="url(#mask0_148_948)">
<path d="M29.9999 73.3334V29.25C24.9444 27.9167 20.9027 25.125 17.8749 20.875C14.8471 16.625 13.3333 11.8889 13.3333 6.66669H19.9999C19.9999 11.2778 21.486 15.2084 24.4583 18.4584C27.4305 21.7084 31.2221 23.3334 35.8333 23.3334H44.1666C45.8333 23.3334 47.3888 23.6389 48.8333 24.25C50.2777 24.8611 51.5833 25.75 52.7499 26.9167L67.8333 42L63.1666 46.6667L49.9999 33.5V73.3334H43.3333V53.3334H36.6666V73.3334H29.9999ZM39.9999 20C38.1666 20 36.5971 19.3472 35.2916 18.0417C33.986 16.7361 33.3333 15.1667 33.3333 13.3334C33.3333 11.5 33.986 9.93058 35.2916 8.62502C36.5971 7.31946 38.1666 6.66669 39.9999 6.66669C41.8333 6.66669 43.4027 7.31946 44.7083 8.62502C46.0138 9.93058 46.6666 11.5 46.6666 13.3334C46.6666 15.1667 46.0138 16.7361 44.7083 18.0417C43.4027 19.3472 41.8333 20 39.9999 20Z" fill="#4FAFB1"/>
</g>
</svg>
