<svg width="96" height="96" viewBox="0 0 96 96" fill="none" xmlns="http://www.w3.org/2000/svg">
<mask id="mask0_140_102" style="mask-type:alpha" maskUnits="userSpaceOnUse" x="0" y="0" width="96" height="96">
<rect width="96" height="96" fill="#D9D9D9"/>
</mask>
<g mask="url(#mask0_140_102)">
<path d="M48 12L92 45L87.2 51.4L80 46V84H16V46L8.8 51.4L4 45L48 12ZM29.4 48.2C29.4 51.7333 31.3 55.5 35.1 59.5C38.9 63.5 43.2 67.6667 48 72C52.8 67.6667 57.1 63.5 60.9 59.5C64.7 55.5 66.6 51.7333 66.6 48.2C66.6 45.2667 65.6 42.8333 63.6 40.9C61.6 38.9667 59.2 38 56.4 38C54.6667 38 53.0833 38.35 51.65 39.05C50.2167 39.75 49 40.6667 48 41.8C47 40.6667 45.75 39.75 44.25 39.05C42.75 38.35 41.2 38 39.6 38C36.8 38 34.4 38.9667 32.4 40.9C30.4 42.8333 29.4 45.2667 29.4 48.2ZM72 76V40L48 22L24 40V76H72Z" fill="#297378"/>
</g>
</svg>
