<svg width="25" height="24" viewBox="0 0 25 24" fill="none" xmlns="http://www.w3.org/2000/svg">
<g clip-path="url(#clip0_18_2)">
<path d="M24.7806 12C24.7806 5.3726 19.4081 2.67029e-05 12.7806 2.67029e-05C6.15322 2.67029e-05 0.78064 5.3726 0.78064 12C0.78064 17.9896 5.16887 22.954 10.9056 23.8542V15.4688H7.85877V12H10.9056V9.35628C10.9056 6.34878 12.6972 4.68753 15.4382 4.68753C16.7511 4.68753 18.1244 4.9219 18.1244 4.9219V7.87503H16.6112C15.1205 7.87503 14.6556 8.80003 14.6556 9.74902V12H17.9838L17.4517 15.4688H14.6556V23.8542C20.3924 22.954 24.7806 17.9896 24.7806 12Z" fill="black"/>
<path d="M17.4517 15.4688L17.9838 12H14.6556V9.74899C14.6556 8.80001 15.1205 7.875 16.6112 7.875H18.1244V4.92188C18.1244 4.92188 16.7511 4.6875 15.4382 4.6875C12.6972 4.6875 10.9056 6.34875 10.9056 9.35625V12H7.85876V15.4688H10.9056V23.8542C11.5166 23.9501 12.1428 24 12.7806 24C13.4185 24 14.0447 23.9501 14.6556 23.8542V15.4688H17.4517Z" fill="white"/>
</g>
<defs>
<clipPath id="clip0_18_2">
<rect width="24" height="24" fill="white" transform="translate(0.78064)"/>
</clipPath>
</defs>
</svg>
