<svg width="25" height="24" viewBox="0 0 25 24" fill="none" xmlns="http://www.w3.org/2000/svg">
<g clip-path="url(#clip0_18_17)">
<path d="M7.24958 0.0839862C5.97278 0.144226 5.10086 0.347986 4.33862 0.647506C3.54974 0.954946 2.8811 1.36751 2.21582 2.03519C1.55054 2.70287 1.14086 3.37199 0.835582 4.16207C0.540142 4.92599 0.339982 5.79863 0.283582 7.07615C0.227182 8.35367 0.214702 8.76431 0.220942 12.023C0.227182 15.2817 0.241582 15.6902 0.303502 16.9704C0.364462 18.2469 0.567502 19.1186 0.867022 19.8811C1.17494 20.67 1.58702 21.3384 2.25494 22.0039C2.92286 22.6694 3.5915 23.0781 4.3835 23.3839C5.1467 23.6789 6.01958 23.88 7.29686 23.9359C8.57414 23.9918 8.98526 24.0048 12.243 23.9985C15.5008 23.9923 15.9109 23.9779 17.1909 23.9172C18.4708 23.8565 19.3379 23.652 20.1006 23.3539C20.8895 23.0453 21.5584 22.6339 22.2234 21.9657C22.8885 21.2976 23.2979 20.628 23.6029 19.8374C23.8986 19.0742 24.0995 18.2013 24.1549 16.925C24.2109 15.6441 24.2241 15.2352 24.2178 11.9769C24.2116 8.71871 24.1969 8.31023 24.1362 7.03055C24.0755 5.75087 23.8722 4.88183 23.5729 4.11887C23.2645 3.32999 22.8529 2.66207 22.1853 1.99607C21.5176 1.33007 20.8475 0.920866 20.0572 0.616546C19.2935 0.321106 18.4211 0.119746 17.1438 0.0645462C15.8665 0.00934617 15.4554 -0.00481383 12.1965 0.00142617C8.9375 0.00766617 8.5295 0.0215862 7.24958 0.0839862ZM7.38974 21.7771C6.21974 21.7262 5.58446 21.5318 5.1611 21.3691C4.60046 21.1531 4.2011 20.892 3.77918 20.4741C3.35726 20.0563 3.09806 19.6555 2.87918 19.0961C2.71478 18.6727 2.51678 18.0381 2.46206 16.8681C2.40254 15.6036 2.39006 15.2239 2.3831 12.0201C2.37614 8.81639 2.38838 8.43719 2.44382 7.17215C2.49374 6.00311 2.68934 5.36711 2.85182 4.94399C3.06782 4.38263 3.32798 3.98399 3.74678 3.56231C4.16558 3.14063 4.56518 2.88095 5.1251 2.66207C5.54798 2.49695 6.18254 2.30063 7.35206 2.24495C8.61758 2.18495 8.99678 2.17295 12.2001 2.16599C15.4033 2.15903 15.7835 2.17103 17.0495 2.22671C18.2185 2.27759 18.8548 2.47127 19.2774 2.63471C19.8383 2.85071 20.2374 3.11015 20.6591 3.52967C21.0808 3.94919 21.3407 4.34735 21.5596 4.90847C21.7249 5.33015 21.9213 5.96447 21.9765 7.13471C22.0367 8.40023 22.0504 8.77967 22.0561 11.9827C22.0619 15.1857 22.0506 15.5661 21.9952 16.8307C21.9441 18.0007 21.7501 18.6362 21.5872 19.0601C21.3712 19.6205 21.1108 20.0201 20.6917 20.4415C20.2727 20.8629 19.8736 21.1226 19.3134 21.3415C18.891 21.5064 18.2557 21.7032 17.0872 21.7589C15.8217 21.8184 15.4425 21.8309 12.238 21.8378C9.0335 21.8448 8.6555 21.8318 7.38998 21.7771M17.1724 5.58647C17.1729 5.87129 17.2578 6.14958 17.4164 6.38613C17.5751 6.62268 17.8003 6.80688 18.0636 6.91541C18.327 7.02395 18.6166 7.05196 18.8958 6.99589C19.1751 6.93982 19.4314 6.8022 19.6325 6.60043C19.8335 6.39866 19.9702 6.1418 20.0252 5.86235C20.0803 5.58289 20.0512 5.29339 19.9417 5.03045C19.8322 4.76752 19.6472 4.54296 19.4101 4.38518C19.1729 4.22741 18.8943 4.1435 18.6095 4.14407C18.2277 4.14483 17.8618 4.29721 17.5923 4.5677C17.3228 4.83819 17.1717 5.20464 17.1724 5.58647ZM6.05798 12.012C6.0647 15.4152 8.82854 18.1677 12.231 18.1613C15.6335 18.1548 18.388 15.3912 18.3815 11.988C18.375 8.58479 15.6105 5.83151 12.2075 5.83823C8.80454 5.84495 6.0515 8.60927 6.05798 12.012ZM8.21942 12.0077C8.21786 11.2165 8.45093 10.4427 8.88916 9.78401C9.32739 9.12534 9.9511 8.6114 10.6814 8.3072C11.4117 8.003 12.2159 7.92219 12.9921 8.075C13.7683 8.22781 14.4818 8.60736 15.0424 9.16568C15.6029 9.72399 15.9853 10.436 16.1412 11.2116C16.297 11.9872 16.2194 12.7917 15.9181 13.5232C15.6168 14.2547 15.1053 14.8805 14.4484 15.3213C13.7915 15.7621 13.0186 15.9983 12.2274 15.9998C11.7021 16.0009 11.1817 15.8985 10.696 15.6985C10.2102 15.4985 9.76867 15.2047 9.39647 14.834C9.02429 14.4633 8.72877 14.0228 8.52681 13.5379C8.32485 13.053 8.2204 12.533 8.21942 12.0077Z" fill="black"/>
</g>
<defs>
<clipPath id="clip0_18_17">
<rect width="24" height="24" fill="white" transform="translate(0.219482)"/>
</clipPath>
</defs>
</svg>
