<svg width="96" height="96" viewBox="0 0 96 96" fill="none" xmlns="http://www.w3.org/2000/svg">
<path d="M64 64.0001V51.6001L57.2 38.8001C54.9333 39.5334 53.1667 40.9001 51.9 42.9001C50.6333 44.9001 50 47.1001 50 49.5001V75.9001L57.6 88.0001H88L84 38.5001L56.2 6.1001C53.8667 8.43343 52.4333 11.1668 51.9 14.3001C51.3667 17.4334 51.8667 20.4334 53.4 23.3001L68 50.4001V64.0001H64ZM28 64.0001V50.4001L42.6 23.3001C44.1333 20.5001 44.6167 17.5168 44.05 14.3501C43.4833 11.1834 42.0667 8.43343 39.8 6.1001L12 38.5001L8 88.0001H38.4L46 75.9001V49.5001C46 47.1001 45.3667 44.9001 44.1 42.9001C42.8333 40.9001 41.0667 39.5334 38.8 38.8001L32 51.6001V64.0001H28Z" fill="white"/>
</svg>
