<svg width="96" height="96" viewBox="0 0 96 96" fill="none" xmlns="http://www.w3.org/2000/svg">
<mask id="mask0_195_7" style="mask-type:alpha" maskUnits="userSpaceOnUse" x="0" y="0" width="96" height="96">
<rect width="96" height="96" fill="#D9D9D9"/>
</mask>
<g mask="url(#mask0_195_7)">
<path d="M32 68C33.1333 68 34.0833 67.6167 34.85 66.85C35.6167 66.0833 36 65.1333 36 64C36 62.8667 35.6167 61.9167 34.85 61.15C34.0833 60.3833 33.1333 60 32 60C30.8667 60 29.9167 60.3833 29.15 61.15C28.3833 61.9167 28 62.8667 28 64C28 65.1333 28.3833 66.0833 29.15 66.85C29.9167 67.6167 30.8667 68 32 68ZM32 52C33.1333 52 34.0833 51.6167 34.85 50.85C35.6167 50.0833 36 49.1333 36 48C36 46.8667 35.6167 45.9167 34.85 45.15C34.0833 44.3833 33.1333 44 32 44C30.8667 44 29.9167 44.3833 29.15 45.15C28.3833 45.9167 28 46.8667 28 48C28 49.1333 28.3833 50.0833 29.15 50.85C29.9167 51.6167 30.8667 52 32 52ZM32 36C33.1333 36 34.0833 35.6167 34.85 34.85C35.6167 34.0833 36 33.1333 36 32C36 30.8667 35.6167 29.9167 34.85 29.15C34.0833 28.3833 33.1333 28 32 28C30.8667 28 29.9167 28.3833 29.15 29.15C28.3833 29.9167 28 30.8667 28 32C28 33.1333 28.3833 34.0833 29.15 34.85C29.9167 35.6167 30.8667 36 32 36ZM44 68H68V60H44V68ZM44 52H68V44H44V52ZM44 36H68V28H44V36ZM20 84C17.8 84 15.9167 83.2167 14.35 81.65C12.7833 80.0833 12 78.2 12 76V20C12 17.8 12.7833 15.9167 14.35 14.35C15.9167 12.7833 17.8 12 20 12H76C78.2 12 80.0833 12.7833 81.65 14.35C83.2167 15.9167 84 17.8 84 20V76C84 78.2 83.2167 80.0833 81.65 81.65C80.0833 83.2167 78.2 84 76 84H20Z" fill="white"/>
</g>
</svg>
