<svg width="96" height="96" viewBox="0 0 96 96" fill="none" xmlns="http://www.w3.org/2000/svg">
<mask id="mask0_183_32" style="mask-type:alpha" maskUnits="userSpaceOnUse" x="0" y="0" width="96" height="96">
<rect width="96" height="96" fill="#D9D9D9"/>
</mask>
<g mask="url(#mask0_183_32)">
<path d="M26 24C23.8 24 21.9167 23.2167 20.35 21.65C18.7833 20.0833 18 18.2 18 16C18 13.8 18.7833 11.9167 20.35 10.35C21.9167 8.78333 23.8 8 26 8C28.2 8 30.0833 8.78333 31.65 10.35C33.2167 11.9167 34 13.8 34 16C34 18.2 33.2167 20.0833 31.65 21.65C30.0833 23.2167 28.2 24 26 24ZM68 44C66.3333 44 64.9167 43.4167 63.75 42.25C62.5833 41.0833 62 39.6667 62 38C62 36.3333 62.5833 34.9167 63.75 33.75C64.9167 32.5833 66.3333 32 68 32C69.6667 32 71.0833 32.5833 72.25 33.75C73.4167 34.9167 74 36.3333 74 38C74 39.6667 73.4167 41.0833 72.25 42.25C71.0833 43.4167 69.6667 44 68 44ZM18 88V60H12V36C12 33.8 12.7833 31.9167 14.35 30.35C15.9167 28.7833 17.8 28 20 28H32C33.4667 28 34.8 28.35 36 29.05C37.2 29.75 38.1667 30.7333 38.9 32L53.2 56.7L57.3 50.6C57.8333 49.8 58.55 49.1667 59.45 48.7C60.35 48.2333 61.3 48 62.3 48H74C75.6667 48 77.0833 48.5833 78.25 49.75C79.4167 50.9167 80 52.3333 80 54V68H76V88H60V59.6L56.9 64H48.1L38 46.4V88H18Z" fill="white"/>
</g>
</svg>
