<svg width="22" height="24" viewBox="0 0 22 24" fill="none" xmlns="http://www.w3.org/2000/svg">
<g clip-path="url(#clip0_18_12)">
<path d="M18.1467 4.8106C16.8758 3.96779 15.9592 2.61871 15.6728 1.04688C15.6113 0.707352 15.577 0.357589 15.577 0H11.5215L11.515 16.5358C11.447 18.3875 9.94879 19.8739 8.11276 19.8739C7.54178 19.8739 7.00452 19.7288 6.53116 19.4754C5.446 18.8944 4.70342 17.7374 4.70342 16.4057C4.70342 14.4932 6.23295 12.937 8.11217 12.937C8.46305 12.937 8.79972 12.996 9.11805 13.0971V8.88494C8.78848 8.83919 8.45358 8.8109 8.11217 8.8109C3.99635 8.8109 0.647949 12.2176 0.647949 16.4057C0.647949 18.9751 1.90944 21.2489 3.83481 22.6238C5.04719 23.4901 6.52229 24 8.11276 24C12.2286 24 15.577 20.5933 15.577 16.4057V8.02047C17.1675 9.18173 19.1165 9.8662 21.2194 9.8662V5.74009C20.0869 5.74009 19.0319 5.39755 18.1467 4.8106Z" fill="black"/>
</g>
<defs>
<clipPath id="clip0_18_12">
<rect width="20.5714" height="24" fill="white" transform="translate(0.647949)"/>
</clipPath>
</defs>
</svg>
