<svg width="25" height="24" viewBox="0 0 25 24" fill="none" xmlns="http://www.w3.org/2000/svg">
<g clip-path="url(#clip0_18_7)">
<path fill-rule="evenodd" clip-rule="evenodd" d="M21.1704 3.48501C18.9271 1.23878 15.9435 0.00113964 12.7645 0C6.21386 0 0.882637 5.33065 0.880358 11.883C0.879218 13.9776 1.42681 16.0221 2.46673 17.8239L0.78064 23.9825L7.08055 22.33C8.8162 23.2771 10.7707 23.7756 12.7594 23.7762H12.7645C19.3139 23.7762 24.6458 18.445 24.648 11.8927C24.6492 8.7171 23.4144 5.7318 21.1704 3.48558V3.48501ZM12.7645 21.7693H12.7605C10.9883 21.7688 9.24986 21.2924 7.73302 20.3926L7.3723 20.1784L3.63372 21.159L4.63147 17.5139L4.3967 17.1401C3.40807 15.5674 2.88555 13.7497 2.88669 11.8836C2.88897 6.43781 7.31987 2.0069 12.7685 2.0069C15.4067 2.00804 17.8866 3.03656 19.7516 4.90386C21.6166 6.77059 22.6429 9.25273 22.6417 11.8915C22.6394 17.3379 18.2086 21.7688 12.7645 21.7688V21.7693ZM18.1823 14.372C17.8854 14.2232 16.4256 13.5052 16.1532 13.4061C15.8808 13.3069 15.6831 13.2574 15.4853 13.5548C15.2876 13.8523 14.7184 14.5213 14.5452 14.719C14.3719 14.9173 14.1987 14.9418 13.9018 14.793C13.605 14.6443 12.6482 14.3309 11.5137 13.3195C10.6311 12.532 10.035 11.5599 9.86186 11.2624C9.68862 10.965 9.84362 10.8043 9.99174 10.6567C10.1251 10.5234 10.2886 10.3097 10.4373 10.1365C10.5861 9.96325 10.6351 9.83907 10.7342 9.6413C10.8334 9.44301 10.7838 9.26983 10.7097 9.12106C10.6356 8.97235 10.0419 7.51074 9.79403 6.91644C9.55297 6.33752 9.308 6.41615 9.12621 6.40647C8.95297 6.39792 8.75527 6.39621 8.55697 6.39621C8.35867 6.39621 8.03726 6.47029 7.76491 6.76774C7.49255 7.06515 6.72555 7.78369 6.72555 9.24471C6.72555 10.7057 7.78944 12.1183 7.93814 12.3166C8.08685 12.5149 10.0322 15.5139 13.0106 16.8005C13.719 17.1065 14.2722 17.2894 14.7036 17.4262C15.4147 17.6524 16.062 17.6205 16.5737 17.5441C17.1441 17.4587 18.3305 16.8256 18.5778 16.1321C18.8251 15.4386 18.8251 14.8437 18.751 14.7201C18.677 14.5964 18.4787 14.5218 18.1818 14.3731L18.1823 14.372Z" fill="black"/>
</g>
<defs>
<clipPath id="clip0_18_7">
<rect width="23.8674" height="24" fill="white" transform="translate(0.78064)"/>
</clipPath>
</defs>
</svg>
